<svg xmlns="http://www.w3.org/2000/svg" viewBox="0 0 500 500"><g id="freepik--background-complete--inject-55"><rect x="416.78" y="398.49" width="33.12" height="0.25" style="fill:#ebebeb"></rect><rect x="322.53" y="401.21" width="8.69" height="0.25" style="fill:#ebebeb"></rect><rect x="396.59" y="389.21" width="19.19" height="0.25" style="fill:#ebebeb"></rect><rect x="52.46" y="390.89" width="43.19" height="0.25" style="fill:#ebebeb"></rect><rect x="104.56" y="390.89" width="6.33" height="0.25" style="fill:#ebebeb"></rect><rect x="131.47" y="395.11" width="93.68" height="0.25" style="fill:#ebebeb"></rect><path d="M237,337.8H43.92a5.71,5.71,0,0,1-5.71-5.71V60.66A5.71,5.71,0,0,1,43.92,55H237a5.71,5.71,0,0,1,5.71,5.71V332.09A5.71,5.71,0,0,1,237,337.8ZM43.92,55.2a5.47,5.47,0,0,0-5.46,5.46V332.09a5.47,5.47,0,0,0,5.46,5.46H237a5.47,5.47,0,0,0,5.46-5.46V60.66A5.47,5.47,0,0,0,237,55.2Z" style="fill:#ebebeb"></path><path d="M453.31,337.8H260.21a5.72,5.72,0,0,1-5.71-5.71V60.66A5.72,5.72,0,0,1,260.21,55h193.1A5.71,5.71,0,0,1,459,60.66V332.09A5.71,5.71,0,0,1,453.31,337.8ZM260.21,55.2a5.47,5.47,0,0,0-5.46,5.46V332.09a5.47,5.47,0,0,0,5.46,5.46h193.1a5.47,5.47,0,0,0,5.46-5.46V60.66a5.47,5.47,0,0,0-5.46-5.46Z" style="fill:#ebebeb"></path><rect y="382.4" width="500" height="0.25" style="fill:#ebebeb"></rect><polygon points="66.37 359.5 107.97 359.5 107.97 171.03 66.37 187.93 66.37 359.5" style="fill:#f0f0f0"></polygon><rect x="94.36" y="190.89" width="11.37" height="11.37" transform="translate(200.08 393.15) rotate(180)" style="fill:#fafafa"></rect><rect x="81.48" y="190.89" width="11.37" height="11.37" transform="translate(174.34 393.15) rotate(180)" style="fill:#f0f0f0"></rect><rect x="68.61" y="190.89" width="11.37" height="11.37" transform="translate(148.59 393.15) rotate(180)" style="fill:#fafafa"></rect><rect x="94.36" y="203.59" width="11.37" height="11.37" transform="translate(200.08 418.55) rotate(180)" style="fill:#fafafa"></rect><rect x="81.48" y="203.59" width="11.37" height="11.37" transform="translate(174.34 418.55) rotate(180)" style="fill:#fafafa"></rect><rect x="68.61" y="203.59" width="11.37" height="11.37" transform="translate(148.59 418.55) rotate(180)" style="fill:#fafafa"></rect><rect x="94.36" y="216.29" width="11.37" height="11.37" transform="translate(200.08 443.94) rotate(180)" style="fill:#fafafa"></rect><rect x="81.48" y="216.29" width="11.37" height="11.37" transform="translate(174.34 443.94) rotate(180)" style="fill:#f0f0f0"></rect><rect x="68.61" y="216.29" width="11.37" height="11.37" transform="translate(148.59 443.94) rotate(180)" style="fill:#fafafa"></rect><rect x="94.36" y="228.98" width="11.37" height="11.37" transform="translate(200.08 469.34) rotate(180)" style="fill:#f0f0f0"></rect><rect x="81.48" y="228.98" width="11.37" height="11.37" transform="translate(174.34 469.34) rotate(180)" style="fill:#fafafa"></rect><rect x="68.61" y="228.98" width="11.37" height="11.37" transform="translate(148.59 469.34) rotate(180)" style="fill:#fafafa"></rect><rect x="94.36" y="241.68" width="11.37" height="11.37" transform="translate(200.08 494.73) rotate(180)" style="fill:#fafafa"></rect><rect x="81.48" y="241.68" width="11.37" height="11.37" transform="translate(174.34 494.73) rotate(180)" style="fill:#fafafa"></rect><rect x="68.61" y="241.68" width="11.37" height="11.37" transform="translate(148.59 494.73) rotate(180)" style="fill:#f0f0f0"></rect><rect x="94.36" y="254.38" width="11.37" height="11.37" transform="translate(200.08 520.13) rotate(180)" style="fill:#fafafa"></rect><rect x="81.48" y="254.38" width="11.37" height="11.37" transform="translate(174.34 520.13) rotate(180)" style="fill:#f0f0f0"></rect><rect x="68.61" y="254.38" width="11.37" height="11.37" transform="translate(148.59 520.13) rotate(180)" style="fill:#fafafa"></rect><rect x="94.36" y="267.08" width="11.37" height="11.37" transform="translate(200.08 545.52) rotate(180)" style="fill:#f0f0f0"></rect><rect x="81.48" y="267.08" width="11.37" height="11.37" transform="translate(174.34 545.52) rotate(180)" style="fill:#f0f0f0"></rect><rect x="68.61" y="267.08" width="11.37" height="11.37" transform="translate(148.59 545.52) rotate(180)" style="fill:#fafafa"></rect><rect x="94.36" y="279.77" width="11.37" height="11.37" transform="translate(200.08 570.92) rotate(180)" style="fill:#fafafa"></rect><rect x="81.48" y="279.77" width="11.37" height="11.37" transform="translate(174.34 570.92) rotate(180)" style="fill:#f0f0f0"></rect><rect x="68.61" y="279.77" width="11.37" height="11.37" transform="translate(148.59 570.92) rotate(180)" style="fill:#fafafa"></rect><rect x="94.36" y="292.47" width="11.37" height="11.37" transform="translate(200.08 596.31) rotate(180)" style="fill:#fafafa"></rect><rect x="81.48" y="292.47" width="11.37" height="11.37" transform="translate(174.34 596.31) rotate(180)" style="fill:#fafafa"></rect><rect x="68.61" y="292.47" width="11.37" height="11.37" transform="translate(148.59 596.31) rotate(180)" style="fill:#fafafa"></rect><rect x="94.36" y="305.17" width="11.37" height="11.37" transform="translate(200.08 621.7) rotate(180)" style="fill:#f0f0f0"></rect><rect x="81.48" y="305.17" width="11.37" height="11.37" transform="translate(174.34 621.7) rotate(180)" style="fill:#fafafa"></rect><rect x="68.61" y="305.17" width="11.37" height="11.37" transform="translate(148.59 621.7) rotate(180)" style="fill:#f0f0f0"></rect><rect x="94.36" y="317.87" width="11.37" height="11.37" transform="translate(200.08 647.1) rotate(180)" style="fill:#fafafa"></rect><rect x="81.48" y="317.87" width="11.37" height="11.37" transform="translate(174.34 647.1) rotate(180)" style="fill:#f0f0f0"></rect><rect x="68.61" y="317.87" width="11.37" height="11.37" transform="translate(148.59 647.1) rotate(180)" style="fill:#fafafa"></rect><rect x="94.36" y="330.56" width="11.37" height="11.37" transform="translate(200.08 672.49) rotate(180)" style="fill:#f0f0f0"></rect><rect x="81.48" y="330.56" width="11.37" height="11.37" transform="translate(174.34 672.49) rotate(180)" style="fill:#fafafa"></rect><rect x="68.61" y="330.56" width="11.37" height="11.37" transform="translate(148.59 672.49) rotate(180)" style="fill:#fafafa"></rect><polygon points="433.33 359.5 396.66 359.5 396.66 193.33 433.33 208.23 433.33 359.5" style="fill:#f0f0f0"></polygon><rect x="408.37" y="206.29" width="5.53" height="5.53" style="fill:#fafafa"></rect><rect x="400.65" y="214.63" width="5.53" height="5.53" style="fill:#fafafa"></rect><rect x="400.65" y="222.97" width="5.53" height="5.53" style="fill:#fafafa"></rect><rect x="408.37" y="222.97" width="5.53" height="5.53" style="fill:#fafafa"></rect><rect x="416.09" y="222.97" width="5.53" height="5.53" style="fill:#fafafa"></rect><rect x="400.65" y="239.65" width="5.53" height="5.53" style="fill:#fafafa"></rect><rect x="416.09" y="239.65" width="5.53" height="5.53" style="fill:#fafafa"></rect><rect x="408.37" y="247.98" width="5.53" height="5.53" style="fill:#fafafa"></rect><rect x="400.65" y="256.32" width="5.53" height="5.53" style="fill:#fafafa"></rect><rect x="416.09" y="256.32" width="5.53" height="5.53" style="fill:#fafafa"></rect><rect x="423.82" y="256.32" width="5.53" height="5.53" style="fill:#fafafa"></rect><rect x="408.37" y="264.66" width="5.53" height="5.53" style="fill:#fafafa"></rect><rect x="400.65" y="273" width="5.53" height="5.53" style="fill:#fafafa"></rect><rect x="408.37" y="273" width="5.53" height="5.53" style="fill:#fafafa"></rect><rect x="423.82" y="273" width="5.53" height="5.53" style="fill:#fafafa"></rect><rect x="400.65" y="281.17" width="5.53" height="5.53" transform="translate(4.11 -5.76) rotate(0.82)" style="fill:#fafafa"></rect><rect x="416.09" y="281.39" width="5.53" height="5.53" transform="translate(4.11 -5.97) rotate(0.82)" style="fill:#fafafa"></rect><rect x="423.81" y="281.5" width="5.53" height="5.53" transform="translate(4.12 -6.09) rotate(0.82)" style="fill:#fafafa"></rect><rect x="408.37" y="289.67" width="5.53" height="5.53" style="fill:#fafafa"></rect><rect x="423.82" y="297.25" width="5.53" height="5.53" transform="translate(853.16 600.03) rotate(180)" style="fill:#fafafa"></rect><rect x="408.37" y="297.25" width="5.53" height="5.53" transform="translate(822.28 600.03) rotate(180)" style="fill:#fafafa"></rect><rect x="400.65" y="297.25" width="5.53" height="5.53" transform="translate(806.83 600.03) rotate(180)" style="fill:#fafafa"></rect><rect x="416.1" y="305.59" width="5.53" height="5.53" transform="translate(837.72 616.7) rotate(180)" style="fill:#fafafa"></rect><rect x="423.82" y="313.93" width="5.53" height="5.53" transform="translate(853.16 633.38) rotate(180)" style="fill:#fafafa"></rect><rect x="416.1" y="313.93" width="5.53" height="5.53" transform="translate(837.72 633.38) rotate(180)" style="fill:#fafafa"></rect><rect x="400.65" y="313.93" width="5.53" height="5.53" transform="translate(806.83 633.38) rotate(180)" style="fill:#fafafa"></rect><rect x="423.82" y="322.1" width="5.53" height="5.53" transform="translate(857.77 643.57) rotate(179.18)" style="fill:#fafafa"></rect><rect x="408.37" y="322.32" width="5.53" height="5.53" transform="translate(826.9 644.24) rotate(179.18)" style="fill:#fafafa"></rect><rect x="400.65" y="322.43" width="5.53" height="5.53" transform="translate(811.45 644.58) rotate(179.18)" style="fill:#fafafa"></rect><rect x="416.1" y="330.6" width="5.53" height="5.53" transform="translate(837.72 666.73) rotate(180)" style="fill:#fafafa"></rect><polygon points="365.64 175.77 365.64 167.97 349.86 167.97 349.86 175.77 323.68 175.77 323.68 359.5 369.46 359.5 369.46 175.77 365.64 175.77" style="fill:#f0f0f0"></polygon><rect x="338.47" y="185.64" width="6.76" height="6.76" style="fill:#fafafa"></rect><rect x="347.91" y="185.64" width="6.76" height="6.76" style="fill:#fafafa"></rect><rect x="329.02" y="195.84" width="6.76" height="6.76" style="fill:#fafafa"></rect><rect x="338.47" y="195.84" width="6.76" height="6.76" style="fill:#fafafa"></rect><rect x="357.35" y="195.84" width="6.76" height="6.76" style="fill:#fafafa"></rect><rect x="329.02" y="206.03" width="6.76" height="6.76" style="fill:#fafafa"></rect><rect x="347.91" y="206.03" width="6.76" height="6.76" style="fill:#fafafa"></rect><rect x="357.35" y="206.03" width="6.76" height="6.76" style="fill:#fafafa"></rect><rect x="329.02" y="226.42" width="6.76" height="6.76" style="fill:#fafafa"></rect><rect x="347.91" y="226.42" width="6.76" height="6.76" style="fill:#fafafa"></rect><rect x="329.02" y="236.62" width="6.76" height="6.76" style="fill:#fafafa"></rect><rect x="338.47" y="236.62" width="6.76" height="6.76" style="fill:#fafafa"></rect><rect x="357.35" y="236.62" width="6.76" height="6.76" style="fill:#fafafa"></rect><rect x="329.02" y="287.53" width="6.76" height="6.76" style="fill:#fafafa"></rect><rect x="338.47" y="287.53" width="6.76" height="6.76" style="fill:#fafafa"></rect><rect x="357.35" y="287.53" width="6.76" height="6.76" style="fill:#fafafa"></rect><rect x="329.02" y="297.73" width="6.76" height="6.76" style="fill:#fafafa"></rect><rect x="347.91" y="297.73" width="6.76" height="6.76" style="fill:#fafafa"></rect><rect x="357.35" y="297.73" width="6.76" height="6.76" style="fill:#fafafa"></rect><rect x="329.02" y="318.12" width="6.76" height="6.76" style="fill:#fafafa"></rect><rect x="347.91" y="318.12" width="6.76" height="6.76" style="fill:#fafafa"></rect><rect x="329.02" y="328.32" width="6.76" height="6.76" style="fill:#fafafa"></rect><rect x="338.47" y="328.32" width="6.76" height="6.76" style="fill:#fafafa"></rect><rect x="357.35" y="328.32" width="6.76" height="6.76" style="fill:#fafafa"></rect><rect x="357.35" y="246.82" width="6.76" height="6.76" style="fill:#fafafa"></rect><rect x="329.02" y="257.01" width="6.76" height="6.76" style="fill:#fafafa"></rect><rect x="338.47" y="257.01" width="6.76" height="6.76" style="fill:#fafafa"></rect><rect x="347.91" y="267.28" width="6.76" height="6.76" transform="translate(3.91 -5.01) rotate(0.82)" style="fill:#fafafa"></rect><rect x="357.35" y="267.41" width="6.76" height="6.76" transform="translate(3.91 -5.14) rotate(0.82)" style="fill:#fafafa"></rect><rect x="329.02" y="277.41" width="6.76" height="6.76" style="fill:#fafafa"></rect><path d="M211.91,108a6.72,6.72,0,0,0-3.78,1.19,9.85,9.85,0,0,0,.89-3.28,8.44,8.44,0,0,0-8.55-9.36,9.86,9.86,0,0,0-4.49,1.1,8.39,8.39,0,0,0-8.23-6.08A10.42,10.42,0,0,0,177.57,101a8.58,8.58,0,0,0,0,1.24,9.2,9.2,0,0,0-2.43-.33,10.44,10.44,0,0,0-10.19,9.36,8.46,8.46,0,0,0,8.55,9.37h37.33a7,7,0,0,0,6.84-6.29A5.66,5.66,0,0,0,211.91,108Z" style="fill:#f5f5f5"></path><path d="M120.89,137a6.07,6.07,0,0,0-3.38,1.06,8.78,8.78,0,0,0,.79-2.92,7.56,7.56,0,0,0-7.64-8.38,8.87,8.87,0,0,0-4,1,7.51,7.51,0,0,0-7.36-5.43,9.32,9.32,0,0,0-9.11,8.37,10.51,10.51,0,0,0,0,1.12,8.07,8.07,0,0,0-2.17-.3,9.32,9.32,0,0,0-9.11,8.37,7.55,7.55,0,0,0,7.64,8.38H119.9a6.26,6.26,0,0,0,6.12-5.63A5.07,5.07,0,0,0,120.89,137Z" style="fill:#f5f5f5"></path><path d="M369.91,132.36a10.25,10.25,0,0,0-5.74,1.81,15,15,0,0,0,1.34-5,12.81,12.81,0,0,0-13-14.22,15.07,15.07,0,0,0-6.83,1.66,12.75,12.75,0,0,0-12.49-9.22,15.83,15.83,0,0,0-15.47,14.22,13.3,13.3,0,0,0,0,1.89A13.82,13.82,0,0,0,314,123a15.84,15.84,0,0,0-15.47,14.22,12.83,12.83,0,0,0,13,14.23h56.7a10.65,10.65,0,0,0,10.39-9.56A8.62,8.62,0,0,0,369.91,132.36Z" style="fill:#f5f5f5"></path><path d="M317.16,131.41a6.83,6.83,0,0,0-3.87,1.22,10.34,10.34,0,0,0,.91-3.35,8.65,8.65,0,0,0-8.75-9.59,10.18,10.18,0,0,0-4.6,1.12,8.6,8.6,0,0,0-8.42-6.22A10.68,10.68,0,0,0,282,124.18a9.16,9.16,0,0,0,0,1.28,9.13,9.13,0,0,0-2.49-.35,10.68,10.68,0,0,0-10.42,9.59,8.64,8.64,0,0,0,8.75,9.59H316a7.17,7.17,0,0,0,7-6.44A5.8,5.8,0,0,0,317.16,131.41Z" style="fill:#fafafa"></path><path d="M418,115.5a5.67,5.67,0,0,0-3.21,1,8.25,8.25,0,0,0,.75-2.78,7.17,7.17,0,0,0-7.26-8,8.48,8.48,0,0,0-3.82.93,7.14,7.14,0,0,0-7-5.16,8.86,8.86,0,0,0-8.66,8,7.39,7.39,0,0,0,0,1,7.72,7.72,0,0,0-2.07-.28,8.85,8.85,0,0,0-8.65,8,7.18,7.18,0,0,0,7.26,8H417a6,6,0,0,0,5.81-5.35A4.83,4.83,0,0,0,418,115.5Z" style="fill:#fafafa"></path><polygon points="152.73 108.92 150.03 108.92 149.3 119.96 152.73 119.96 152.73 108.92" style="fill:#fafafa"></polygon><polygon points="152.73 108.92 155.44 108.92 156.17 119.96 152.73 119.96 152.73 108.92" style="fill:#f0f0f0"></polygon><polygon points="152.73 298.07 137.88 298.07 133.88 272.94 152.73 272.94 152.73 298.07" style="fill:#f5f5f5"></polygon><polygon points="152.73 298.07 167.59 298.07 171.59 272.94 152.73 272.94 152.73 298.07" style="fill:#ebebeb"></polygon><polygon points="152.73 296.03 167.59 296.03 171.59 361.88 152.73 361.88 152.73 296.03" style="fill:#fafafa"></polygon><polygon points="152.73 296.03 137.88 296.03 133.88 361.88 152.73 361.88 152.73 296.03" style="fill:#f0f0f0"></polygon><polygon points="152.73 276.14 137.88 276.14 133.88 251 152.73 251 152.73 276.14" style="fill:#fafafa"></polygon><polygon points="152.73 276.14 167.59 276.14 171.59 251 152.73 251 152.73 276.14" style="fill:#f0f0f0"></polygon><polygon points="152.73 252.59 137.88 252.59 133.88 227.46 152.73 227.46 152.73 252.59" style="fill:#f5f5f5"></polygon><polygon points="152.73 252.59 167.59 252.59 171.59 227.46 152.73 227.46 152.73 252.59" style="fill:#ebebeb"></polygon><polygon points="152.73 230.64 137.88 230.64 133.88 205.5 152.73 205.5 152.73 230.64" style="fill:#fafafa"></polygon><polygon points="152.73 230.64 167.59 230.64 171.59 205.5 152.73 205.5 152.73 230.64" style="fill:#f0f0f0"></polygon><polygon points="152.73 207.12 137.88 207.12 133.88 181.98 152.73 181.98 152.73 207.12" style="fill:#f5f5f5"></polygon><polygon points="152.73 207.12 167.59 207.12 171.59 181.98 152.73 181.98 152.73 207.12" style="fill:#ebebeb"></polygon><polygon points="152.73 185.14 137.88 185.14 133.88 160.01 152.73 160.01 152.73 185.14" style="fill:#fafafa"></polygon><polygon points="152.73 185.14 167.59 185.14 171.59 160.01 152.73 160.01 152.73 185.14" style="fill:#f0f0f0"></polygon><polygon points="152.73 164.5 145.3 164.5 143.3 151.93 152.73 151.93 152.73 164.5" style="fill:#fafafa"></polygon><polygon points="152.73 164.5 160.17 164.5 162.17 151.93 152.73 151.93 152.73 164.5" style="fill:#f0f0f0"></polygon><polygon points="152.73 152.52 147.11 152.52 145.6 125.49 152.73 125.49 152.73 152.52" style="fill:#f5f5f5"></polygon><polygon points="152.73 152.52 158.36 152.52 159.87 125.49 152.73 125.49 152.73 152.52" style="fill:#ebebeb"></polygon><polygon points="152.73 128.91 147.11 128.91 145.6 118.63 152.73 118.63 152.73 128.91" style="fill:#fafafa"></polygon><polygon points="152.73 128.91 158.36 128.91 159.87 118.63 152.73 118.63 152.73 128.91" style="fill:#f0f0f0"></polygon><rect x="152.35" y="91.59" width="0.76" height="19.61" style="fill:#f0f0f0"></rect></g><g id="freepik--Shadow--inject-55"><ellipse id="freepik--path--inject-55" cx="245.18" cy="412.39" rx="193.89" ry="11.32" style="fill:#f5f5f5"></ellipse></g><g id="freepik--Monument--inject-55"><polygon points="337.16 329.68 343.43 335.96 363.87 335.96 388.32 360.41 335.47 360.41 337.16 329.68" style="fill:#263238"></polygon><polygon points="337.16 329.68 343.43 335.96 363.87 335.96 388.32 360.41 335.47 360.41 337.16 329.68" style="fill:#fff;opacity:0.7000000000000001"></polygon><rect x="79.01" y="286.34" width="255.4" height="49.21" style="fill:#407BFF"></rect><rect x="79.01" y="286.34" width="255.4" height="49.21" style="fill:#fff;opacity:0.7000000000000001"></rect><rect x="103.62" y="288.95" width="5.5" height="41.06" style="fill:#407BFF"></rect><rect x="76.26" y="288.95" width="5.5" height="41.06" style="fill:#407BFF"></rect><rect x="128.71" y="288.95" width="5.5" height="41.06" style="fill:#407BFF"></rect><rect x="153.8" y="288.95" width="5.5" height="41.06" style="fill:#407BFF"></rect><rect x="178.89" y="288.95" width="5.5" height="41.06" style="fill:#407BFF"></rect><rect x="229.07" y="288.95" width="5.5" height="41.06" style="fill:#407BFF"></rect><rect x="254.16" y="288.95" width="5.5" height="41.06" style="fill:#407BFF"></rect><rect x="279.26" y="288.95" width="5.5" height="41.06" style="fill:#407BFF"></rect><rect x="304.35" y="288.95" width="5.5" height="41.06" style="fill:#407BFF"></rect><rect x="331.65" y="288.95" width="5.5" height="41.06" style="fill:#407BFF"></rect><path d="M128.71,292.42a2.29,2.29,0,0,0-2.39-2.18H111.51a2.29,2.29,0,0,0-2.39,2.18V289h19.59Z" style="fill:#263238"></path><path d="M128.71,292.42a2.29,2.29,0,0,0-2.39-2.18H111.51a2.29,2.29,0,0,0-2.39,2.18V289h19.59Z" style="fill:#fff;opacity:0.30000000000000004"></path><path d="M103.74,292.42a2.29,2.29,0,0,0-2.39-2.18H84.15a2.29,2.29,0,0,0-2.39,2.18V289h22Z" style="fill:#263238"></path><path d="M103.74,292.42a2.29,2.29,0,0,0-2.39-2.18H84.15a2.29,2.29,0,0,0-2.39,2.18V289h22Z" style="fill:#fff;opacity:0.30000000000000004"></path><path d="M153.8,292.42a2.29,2.29,0,0,0-2.39-2.18H136.6a2.29,2.29,0,0,0-2.39,2.18V289H153.8Z" style="fill:#263238"></path><path d="M153.8,292.42a2.29,2.29,0,0,0-2.39-2.18H136.6a2.29,2.29,0,0,0-2.39,2.18V289H153.8Z" style="fill:#fff;opacity:0.30000000000000004"></path><path d="M178.89,292.42a2.29,2.29,0,0,0-2.39-2.18H161.69a2.29,2.29,0,0,0-2.39,2.18V289h19.59Z" style="fill:#263238"></path><path d="M178.89,292.42a2.29,2.29,0,0,0-2.39-2.18H161.69a2.29,2.29,0,0,0-2.39,2.18V289h19.59Z" style="fill:#fff;opacity:0.30000000000000004"></path><path d="M254.16,292.42a2.29,2.29,0,0,0-2.39-2.18H237a2.29,2.29,0,0,0-2.39,2.18V289h19.58Z" style="fill:#263238"></path><path d="M254.16,292.42a2.29,2.29,0,0,0-2.39-2.18H237a2.29,2.29,0,0,0-2.39,2.18V289h19.58Z" style="fill:#fff;opacity:0.30000000000000004"></path><path d="M279.26,292.42a2.29,2.29,0,0,0-2.39-2.18H262.06a2.29,2.29,0,0,0-2.39,2.18V289h19.59Z" style="fill:#263238"></path><path d="M279.26,292.42a2.29,2.29,0,0,0-2.39-2.18H262.06a2.29,2.29,0,0,0-2.39,2.18V289h19.59Z" style="fill:#fff;opacity:0.30000000000000004"></path><path d="M304.35,292.42a2.29,2.29,0,0,0-2.39-2.18H287.15a2.29,2.29,0,0,0-2.39,2.18V289h19.59Z" style="fill:#263238"></path><path d="M304.35,292.42a2.29,2.29,0,0,0-2.39-2.18H287.15a2.29,2.29,0,0,0-2.39,2.18V289h19.59Z" style="fill:#fff;opacity:0.30000000000000004"></path><path d="M331.65,292.42a2.29,2.29,0,0,0-2.39-2.18h-17a2.29,2.29,0,0,0-2.39,2.18V289h21.8Z" style="fill:#263238"></path><path d="M331.65,292.42a2.29,2.29,0,0,0-2.39-2.18h-17a2.29,2.29,0,0,0-2.39,2.18V289h21.8Z" style="fill:#fff;opacity:0.30000000000000004"></path><path d="M229.07,292.42a2.29,2.29,0,0,0-2.39-2.18h-39.9a2.29,2.29,0,0,0-2.39,2.18V289h44.68Z" style="fill:#263238"></path><path d="M229.07,292.42a2.29,2.29,0,0,0-2.39-2.18h-39.9a2.29,2.29,0,0,0-2.39,2.18V289h44.68Z" style="fill:#fff;opacity:0.30000000000000004"></path><path d="M284.41,320.89a1.27,1.27,0,0,0-1.27,1.27v1.5h-14.7v-1.5a1.27,1.27,0,1,0-2.54,0v1.5H251.2v-1.5a1.27,1.27,0,1,0-2.54,0v1.5H234v-1.5a1.27,1.27,0,1,0-2.54,0v1.5h-14.7v-1.5a1.27,1.27,0,1,0-2.54,0v1.5H199.49v-1.5a1.28,1.28,0,0,0-2.55,0v1.5H182.25v-1.5a1.28,1.28,0,0,0-2.55,0v1.5H165v-1.5a1.28,1.28,0,0,0-2.55,0v1.5H147.77v-1.5a1.28,1.28,0,0,0-2.55,0v1.5H130.53v-1.5a1.28,1.28,0,0,0-2.55,0v1.5H113.29v-1.5a1.28,1.28,0,0,0-2.55,0v1.5H96.05v-1.5a1.28,1.28,0,0,0-2.55,0v1.5H78.81v-1.5a1.28,1.28,0,0,0-2.55,0v8.17h2.55v-4.57H85.1v4.57h2.1v-4.57h6.3v4.57h2.55v-4.57h6.29v4.57h2.1v-4.57h6.3v4.57h2.55v-4.57h6.29v4.57h2.1v-4.57H128v4.57h2.55v-4.57h6.29v4.57h2.1v-4.57h6.3v4.57h2.55v-4.57h6.29v4.57h2.1v-4.57h6.3v4.57H165v-4.57h6.29v4.57h2.1v-4.57h6.3v4.57h2.55v-4.57h6.29v4.57h2.1v-4.57h6.3v4.57h2.55v-4.57h6.29v4.57h2.1v-4.57h6.3v4.57h2.54v-4.57H223v4.57h2.1v-4.57h6.3v4.57H234v-4.57h6.3v4.57h2.1v-4.57h6.3v4.57h2.54v-4.57h6.3v4.57h2.1v-4.57h6.3v4.57h2.54v-4.57h6.3v4.57h2.1v-4.57h6.3v4.57h2.54v-8.17A1.27,1.27,0,0,0,284.41,320.89Z" style="fill:#263238"></path><path d="M284.41,320.89a1.27,1.27,0,0,0-1.27,1.27v1.5h-14.7v-1.5a1.27,1.27,0,1,0-2.54,0v1.5H251.2v-1.5a1.27,1.27,0,1,0-2.54,0v1.5H234v-1.5a1.27,1.27,0,1,0-2.54,0v1.5h-14.7v-1.5a1.27,1.27,0,1,0-2.54,0v1.5H199.49v-1.5a1.28,1.28,0,0,0-2.55,0v1.5H182.25v-1.5a1.28,1.28,0,0,0-2.55,0v1.5H165v-1.5a1.28,1.28,0,0,0-2.55,0v1.5H147.77v-1.5a1.28,1.28,0,0,0-2.55,0v1.5H130.53v-1.5a1.28,1.28,0,0,0-2.55,0v1.5H113.29v-1.5a1.28,1.28,0,0,0-2.55,0v1.5H96.05v-1.5a1.28,1.28,0,0,0-2.55,0v1.5H78.81v-1.5a1.28,1.28,0,0,0-2.55,0v8.17h2.55v-4.57H85.1v4.57h2.1v-4.57h6.3v4.57h2.55v-4.57h6.29v4.57h2.1v-4.57h6.3v4.57h2.55v-4.57h6.29v4.57h2.1v-4.57H128v4.57h2.55v-4.57h6.29v4.57h2.1v-4.57h6.3v4.57h2.55v-4.57h6.29v4.57h2.1v-4.57h6.3v4.57H165v-4.57h6.29v4.57h2.1v-4.57h6.3v4.57h2.55v-4.57h6.29v4.57h2.1v-4.57h6.3v4.57h2.55v-4.57h6.29v4.57h2.1v-4.57h6.3v4.57h2.54v-4.57H223v4.57h2.1v-4.57h6.3v4.57H234v-4.57h6.3v4.57h2.1v-4.57h6.3v4.57h2.54v-4.57h6.3v4.57h2.1v-4.57h6.3v4.57h2.54v-4.57h6.3v4.57h2.1v-4.57h6.3v4.57h2.54v-8.17A1.27,1.27,0,0,0,284.41,320.89Z" style="fill:#fff;opacity:0.5"></path><path d="M337.16,323v-1.5a1.28,1.28,0,0,0-2.55,0V323H319.92v-1.5a1.28,1.28,0,0,0-2.55,0V323H302.68v-1.5a1.28,1.28,0,0,0-2.55,0V323H285.44v-1.5a1.28,1.28,0,0,0-2.55,0v8.17h2.55v-4.57h6.29v4.57h2.1v-4.57h6.3v4.57h2.55v-4.57H309v4.57h2.1v-4.57h6.3v4.57h2.55v-4.57h6.29v4.57h2.1v-4.57h6.3v4.57h2.55V323Z" style="fill:#263238"></path><path d="M337.16,323v-1.5a1.28,1.28,0,0,0-2.55,0V323H319.92v-1.5a1.28,1.28,0,0,0-2.55,0V323H302.68v-1.5a1.28,1.28,0,0,0-2.55,0V323H285.44v-1.5a1.28,1.28,0,0,0-2.55,0v8.17h2.55v-4.57h6.29v4.57h2.1v-4.57h6.3v4.57h2.55v-4.57H309v4.57h2.1v-4.57h6.3v4.57h2.55v-4.57h6.29v4.57h2.1v-4.57h6.3v4.57h2.55V323Z" style="fill:#fff;opacity:0.5"></path><polygon points="340.42 356.77 73 356.77 76.26 329.68 337.16 329.68 340.42 356.77" style="fill:#263238"></polygon><polygon points="340.42 356.77 73 356.77 76.26 329.68 337.16 329.68 340.42 356.77" style="fill:#fff;opacity:0.5"></polygon><rect x="76.26" y="278.74" width="260.9" height="11.53" style="fill:#263238"></rect><rect x="76.26" y="278.74" width="260.9" height="11.53" style="fill:#fff;opacity:0.30000000000000004"></rect><rect x="110.42" y="281.81" width="16.98" height="5.85" rx="2.77" style="fill:#fff;opacity:0.2"></rect><rect x="83.38" y="281.81" width="19.59" height="5.85" rx="2.77" style="fill:#fff;opacity:0.2"></rect><rect x="309.85" y="281.81" width="19.59" height="5.85" rx="2.77" style="fill:#fff;opacity:0.2"></rect><rect x="135.52" y="281.81" width="16.98" height="5.85" rx="2.77" style="fill:#fff;opacity:0.2"></rect><rect x="160.61" y="281.81" width="16.98" height="5.85" rx="2.77" style="fill:#fff;opacity:0.2"></rect><rect x="235.88" y="281.81" width="16.98" height="5.85" rx="2.77" style="fill:#fff;opacity:0.2"></rect><rect x="260.97" y="281.81" width="16.98" height="5.85" rx="2.77" style="fill:#fff;opacity:0.2"></rect><rect x="286.06" y="281.81" width="16.98" height="5.85" rx="2.77" style="fill:#fff;opacity:0.2"></rect><rect x="187.92" y="281.81" width="38.83" height="5.85" rx="2.77" style="fill:#fff;opacity:0.2"></rect><rect x="76.26" y="268.95" width="260.9" height="9.79" style="fill:#263238"></rect><rect x="76.26" y="268.95" width="260.9" height="9.79" style="fill:#fff;opacity:0.1"></rect><path d="M344.81,254.84c-10.61,0-19.88-.55-24.83-9.12H93.44c-5,8.57-14.22,9.12-24.83,9.12Z" style="fill:#407BFF"></path><path d="M363.87,249c-5,13.59-17.48,24.63-28.09,24.63H77.64c-10.62,0-23.14-11-28.1-24.63v-2.63c5,13.59,14.23,15,24.84,15H339c10.61,0,19.87-1.37,24.83-15Z" style="fill:#263238"></path><path d="M363.87,249c-5,13.59-17.48,24.63-28.09,24.63H77.64c-10.62,0-23.14-11-28.1-24.63v-2.63c5,13.59,14.23,15,24.84,15H339c10.61,0,19.87-1.37,24.83-15Z" style="fill:#fff;opacity:0.1"></path><path d="M363.87,247.06c-5,8.57-11,15.53-21.57,15.53H71.12c-10.61,0-16.62-7-21.58-15.53v-1.34c5,8.57,14.23,9.12,24.84,9.12H339c10.61,0,19.87-.55,24.83-9.12Z" style="fill:#407BFF"></path><path d="M363.87,247.06c-5,8.57-11,15.53-21.57,15.53H71.12c-10.61,0-16.62-7-21.58-15.53v-1.34c5,8.57,14.23,9.12,24.84,9.12H339c10.61,0,19.87-.55,24.83-9.12Z" style="fill:#fff;opacity:0.2"></path><path d="M362.18,246.08c-4,6.89-9.38,13.72-17.95,14.48-1.16.1-2.34.08-3.51.08h-266c-6.06,0-11.63-.64-16.4-5.08a41.16,41.16,0,0,1-7.1-9.48c-1.27-2.17-4.65-.21-3.37,2,5.49,9.38,12.69,16.45,24.12,16.5H339.72c7.26,0,13.76-1.72,19-7.12a47.62,47.62,0,0,0,6.81-9.38c1.27-2.17-2.1-4.14-3.38-2Z" style="fill:#407BFF"></path><rect x="105.85" y="277.49" width="201.71" height="49.21" style="fill:#407BFF"></rect><rect x="105.85" y="277.49" width="201.71" height="49.21" style="fill:#fff;opacity:0.8"></rect><rect x="128.71" y="224.73" width="156.05" height="20.96" style="fill:#263238"></rect><rect x="128.71" y="224.73" width="156.05" height="20.96" style="fill:#fff;opacity:0.1"></rect><path d="M206.63,144.78h.15a1.35,1.35,0,0,1,1.35,1.35V153a0,0,0,0,1,0,0h-2.85a0,0,0,0,1,0,0v-6.92A1.35,1.35,0,0,1,206.63,144.78Z" style="fill:#407BFF"></path><path d="M206.58,149.34h.25a2.26,2.26,0,0,1,2.26,2.26V160a0,0,0,0,1,0,0h-4.77a0,0,0,0,1,0,0V151.6A2.26,2.26,0,0,1,206.58,149.34Z" style="fill:#407BFF"></path><path d="M206.58,149.34h.25a2.26,2.26,0,0,1,2.26,2.26V160a0,0,0,0,1,0,0h-4.77a0,0,0,0,1,0,0V151.6A2.26,2.26,0,0,1,206.58,149.34Z" style="fill:#fff;opacity:0.2"></path><path d="M281.07,213.31s-52.12-19.37-74.36-57.7c-22.24,38.33-74.37,57.7-74.37,57.7Z" style="fill:#407BFF"></path><path d="M281.07,213.31s-52.12-19.37-74.36-57.7c-22.24,38.33-74.37,57.7-74.37,57.7Z" style="fill:#fff;opacity:0.1"></path><path d="M299.38,209.1c-3.65,10-12.89,18.15-20.71,18.15H134.75c-7.83,0-17.06-8.13-20.72-18.15v-1.95c3.66,10,10.49,11,18.31,11H281.07c7.83,0,14.66-1,18.31-11Z" style="fill:#263238"></path><path d="M299.38,209.1c-3.65,10-12.89,18.15-20.71,18.15H134.75c-7.83,0-17.06-8.13-20.72-18.15v-1.95c3.66,10,10.49,11,18.31,11H281.07c7.83,0,14.66-1,18.31-11Z" style="fill:#fff;opacity:0.1"></path><path d="M207.61,165.26H205.8c-23.28,32.17-49.47,43.36-49.47,43.36H257.09S230.89,197.43,207.61,165.26Z" style="fill:#263238"></path><path d="M165.4,206.35H248c-9.52-5.73-25.89-17.6-41.3-38.48C191.3,188.75,174.93,200.62,165.4,206.35Z" style="fill:#407BFF"></path><path d="M299.38,207.67c-3.65,6.32-8.08,11.45-15.91,11.45H129.94c-7.82,0-12.25-5.13-15.91-11.45v-1c3.66,6.32,10.49,6.73,18.31,6.73H281.07c7.83,0,14.66-.41,18.31-6.73Z" style="fill:#407BFF"></path><path d="M299.38,207.67c-3.65,6.32-8.08,11.45-15.91,11.45H129.94c-7.82,0-12.25-5.13-15.91-11.45v-1c3.66,6.32,10.49,6.73,18.31,6.73H281.07c7.83,0,14.66-.41,18.31-6.73Z" style="fill:#fff;opacity:0.2"></path><path d="M298.14,206.94c-3,5.08-6.92,10.12-13.24,10.68-.86.07-1.72.06-2.59.06H132.61c-4.47,0-8.58-.47-12.1-3.75a30.12,30.12,0,0,1-5.23-7,1.44,1.44,0,0,0-2.49,1.46c4,6.91,9.36,12.13,17.78,12.16h151c5.35,0,10.14-1.26,14-5.25a35.58,35.58,0,0,0,5-6.91,1.44,1.44,0,0,0-2.49-1.46Z" style="fill:#407BFF"></path><g style="opacity:0.8"><path d="M173,204s9.25,1.77,7.23-1.6c0,0-2.1,1.43-2.35-.33s3.36-.55,4.37,1.2,5.63,1.2,5.63,1.2-.25-.72,1.43-.72,2.94.8,5.13.8h3.28s-4.37-1.18-3.95-3.34c0,0-1.78.06-1.1,1.67,0,0-4.37-2,1.43-3.42,0,0,2.27,4.37,6.73,4.37s5.63-1.26,5.63-4.37-1.68-3.61-2.43-3.61-3,.25-3,2.43,1.51,1.92,2.1,1.92,1.85-1.47,0-2.25c0,0,1.77-.84,1.85,1.51s-2.52,2.19-3.11,2.19-3.11-.51-1.85-3.87c0,0-1.35-3.36,1.26-1.93,0,0,.76-2.27-1.34-2.27s-2.27,2.43-2.27,2.43-1.52.59-1.85-.67c0,0-1.35-.42-1.52,1.85,0,0-2.31-2-.67-3.61s2.27.67,2.27.67,1.51-2.69-1.6-2.19c0,0,1.6-2.69-.08-5,0,0-4.12,1.68-3.45,5.8,0,0-4,0-2.61,2.92a1.77,1.77,0,0,1,2.86-1.15,12.75,12.75,0,0,0,1.94,3.45,6.21,6.21,0,0,0-3.62,3.44c-1.43,2.91-5.88,1.52-5.88-1.09s3.44-2.44,3.19-.84c0,0-1.68-.84-1.93.59s1.93,2.35,3.19.84,1.35-2.86-.67-3.36c0,0,.17-3.7-1.93-3.37s-1.27,2.36-1.27,2.36.38-1.72,1.77-.87-1.18,2.38-3.62,1a.94.94,0,0,0,0,1.76,3.41,3.41,0,0,1-3.36.93C176.73,199,173,204,173,204Z" style="fill:#fff"></path><path d="M240.47,204s-9.25,1.77-7.24-1.6c0,0,2.11,1.43,2.36-.33s-3.36-.55-4.37,1.2-5.64,1.2-5.64,1.2.26-.72-1.43-.72-2.94.8-5.12.8h-3.28s4.37-1.18,3.95-3.34c0,0,1.78.06,1.09,1.67,0,0,4.37-2-1.43-3.42,0,0-2.27,4.37-6.72,4.37S207,202.61,207,199.5s1.68-3.61,2.44-3.61,3,.25,3,2.43-1.52,1.92-2.1,1.92-1.85-1.47,0-2.25c0,0-1.77-.84-1.85,1.51s2.52,2.19,3.11,2.19,3.11-.51,1.85-3.87c0,0,1.34-3.36-1.26-1.93,0,0-.76-2.27,1.34-2.27s2.27,2.43,2.27,2.43,1.51.59,1.85-.67c0,0,1.35-.42,1.51,1.85,0,0,2.32-2,.68-3.61s-2.27.67-2.27.67-1.52-2.69,1.59-2.19c0,0-1.59-2.69.09-5,0,0,4.12,1.68,3.45,5.8,0,0,4,0,2.6,2.92a1.77,1.77,0,0,0-2.86-1.15,12.58,12.58,0,0,1-1.93,3.45,6.18,6.18,0,0,1,3.61,3.44c1.43,2.91,5.89,1.52,5.89-1.09s-3.45-2.44-3.2-.84c0,0,1.69-.84,1.94.59s-1.94,2.35-3.2.84-1.34-2.86.68-3.36c0,0-.17-3.7,1.93-3.37s1.26,2.36,1.26,2.36-.38-1.72-1.76-.87,1.17,2.38,3.61,1a.94.94,0,0,1,0,1.76,3.43,3.43,0,0,0,3.36.93C236.68,199,240.47,204,240.47,204Z" style="fill:#fff"></path><path d="M195.25,185.61s.57,5.11,5.05,6.11c0,0,1.45.64,1.51,1.64a1.62,1.62,0,0,0,.69-1.64s3.09,1.2,3.22,2.91v-5.3s-2.52,1.45-2.33-1.14,2.33-.31,2.33-.31.5-2.52-1.45-2.52-2.4,2-2.65,3.15a1.7,1.7,0,0,1-3.15.44c-1-1.7,1-1.81,1-1.81s-.76,1.68.69,1.68,1.14-3-.69-3S195.25,185.61,195.25,185.61Z" style="fill:#fff"></path><path d="M217.53,185.61s-.57,5.11-5.05,6.11c0,0-1.45.64-1.51,1.64a1.62,1.62,0,0,1-.69-1.64s-3.09,1.2-3.22,2.91v-5.3s2.52,1.45,2.33-1.14-2.33-.31-2.33-.31-.5-2.52,1.45-2.52,2.4,2,2.65,3.15a1.7,1.7,0,0,0,3.15.44c1-1.7-1-1.81-1-1.81s.76,1.68-.69,1.68-1.14-3,.69-3S217.53,185.61,217.53,185.61Z" style="fill:#fff"></path><path d="M205.78,174.38v10.09s-2.95-1-3.84.89a1.56,1.56,0,0,1-.57-2s-1.83,0-.85,1.64c0,0-3.57.31-4.32-.57,0,0,4.22-4.86,5.67-3.41a6,6,0,0,0,2.9,1.71s-.18-2.65-.88-2.84-.76,1.2-1.89.44S204.45,177,205.78,174.38Z" style="fill:#fff"></path><path d="M207.44,174.38v10.09s2.95-1,3.85.89a1.56,1.56,0,0,0,.56-2s1.84,0,.86,1.64c0,0,3.56.31,4.31-.57,0,0-4.22-4.86-5.67-3.41a6,6,0,0,1-2.9,1.71s.19-2.65.88-2.84.76,1.2,1.89.44S208.77,177,207.44,174.38Z" style="fill:#fff"></path></g><path d="M206.61,151.47h.2a1.83,1.83,0,0,1,1.83,1.83v9.39a0,0,0,0,1,0,0h-3.87a0,0,0,0,1,0,0V153.3A1.83,1.83,0,0,1,206.61,151.47Z" style="fill:#407BFF"></path><path d="M206.54,157.66h.34a3.06,3.06,0,0,1,3.06,3.06v11.41a0,0,0,0,1,0,0h-6.47a0,0,0,0,1,0,0V160.72A3.06,3.06,0,0,1,206.54,157.66Z" style="fill:#407BFF"></path><path d="M206.54,157.66h.34a3.06,3.06,0,0,1,3.06,3.06v11.41a0,0,0,0,1,0,0h-6.47a0,0,0,0,1,0,0V160.72A3.06,3.06,0,0,1,206.54,157.66Z" style="fill:#fff;opacity:0.2"></path><path d="M307.56,244.42s-70.69-26.27-100.85-78.26c-30.16,52-100.86,78.26-100.86,78.26Z" style="fill:#407BFF"></path><path d="M307.56,244.42s-70.69-26.27-100.85-78.26c-30.16,52-100.86,78.26-100.86,78.26Z" style="fill:#fff;opacity:0.30000000000000004"></path><path d="M332.4,238.7c-5,13.59-17.48,24.62-28.1,24.62H109.11c-10.61,0-23.13-11-28.09-24.62v-2.63c5,13.59,14.22,15,24.83,15H307.56c10.61,0,19.88-1.37,24.84-15Z" style="fill:#263238"></path><path d="M332.4,238.7c-5,13.59-17.48,24.62-28.1,24.62H109.11c-10.61,0-23.13-11-28.09-24.62v-2.63c5,13.59,14.22,15,24.83,15H307.56c10.61,0,19.88-1.37,24.84-15Z" style="fill:#fff;opacity:0.1"></path><path d="M207.88,177.94h-2.34c-30.07,41.55-63.91,56-63.91,56H271.78S238,219.49,207.88,177.94Z" style="fill:#263238"></path><path d="M153.36,231h106.7c-12.3-7.41-33.44-22.74-53.35-49.7C186.8,208.27,165.66,223.6,153.36,231Z" style="fill:#407BFF"></path><path d="M332.4,236.76c-5,8.57-11,15.53-21.58,15.53H102.6c-10.62,0-16.62-7-21.58-15.53v-1.34c5,8.56,14.22,9.12,24.83,9.12H307.56c10.61,0,19.88-.56,24.84-9.12Z" style="fill:#407BFF"></path><path d="M332.4,236.76c-5,8.57-11,15.53-21.58,15.53H102.6c-10.62,0-16.62-7-21.58-15.53v-1.34c5,8.56,14.22,9.12,24.83,9.12H307.56c10.61,0,19.88-.56,24.84-9.12Z" style="fill:#fff;opacity:0.4"></path><path d="M330.71,235.78c-4,6.89-9.39,13.72-17.95,14.48-1.17.1-2.34.08-3.51.08h-203c-6.06,0-11.64-.64-16.4-5.08a41.16,41.16,0,0,1-7.1-9.48c-1.27-2.17-4.65-.21-3.38,2,5.5,9.38,12.7,16.45,24.12,16.5h204.8c7.25,0,13.75-1.72,19-7.12a48.28,48.28,0,0,0,6.8-9.38c1.28-2.17-2.1-4.14-3.37-2Z" style="fill:#407BFF"></path><g style="opacity:0.8"><path d="M163.11,228s11.94,2.28,9.33-2.06c0,0-2.71,1.84-3-.44s4.35-.7,5.65,1.55,7.28,1.55,7.28,1.55-.33-.93,1.84-.93,3.8,1,6.63,1H195s-5.64-1.52-5.1-4.31c0,0-2.3.08-1.41,2.15,0,0-5.65-2.56,1.84-4.41,0,0,2.94,5.65,8.69,5.65s7.28-1.63,7.28-5.65-2.17-4.66-3.15-4.66-3.91.32-3.91,3.14,1.95,2.47,2.71,2.47,2.39-1.89,0-2.9c0,0,2.28-1.09,2.39,1.95s-3.25,2.83-4,2.83-4-.65-2.38-5c0,0-1.74-4.34,1.62-2.49,0,0,1-2.94-1.73-2.94s-2.93,3.15-2.93,3.15-2,.76-2.39-.87c0,0-1.74-.54-2,2.39,0,0-3-2.55-.87-4.67s2.93.87,2.93.87,2-3.47-2.06-2.82c0,0,2.06-3.48-.11-6.41,0,0-5.32,2.17-4.45,7.49,0,0-5.21-.05-3.37,3.78a2.3,2.3,0,0,1,3.7-1.5,16.27,16.27,0,0,0,2.49,4.46s-2.82.7-4.67,4.45-7.6,2-7.6-1.41,4.45-3.15,4.13-1.09c0,0-2.17-1.08-2.5.76s2.5,3,4.13,1.09,1.74-3.69-.87-4.35c0,0,.22-4.77-2.5-4.34s-1.63,3-1.63,3,.49-2.22,2.28-1.11-1.52,3.07-4.67,1.33a1.22,1.22,0,0,0,0,2.28,4.4,4.4,0,0,1-4.34,1.19C168,221.51,163.11,228,163.11,228Z" style="fill:#fff"></path><path d="M250.31,228S238.36,230.31,241,226c0,0,2.72,1.84,3-.44s-4.34-.7-5.65,1.55-7.27,1.55-7.27,1.55.32-.93-1.85-.93-3.8,1-6.62,1h-4.24s5.65-1.52,5.11-4.31c0,0,2.29.08,1.41,2.15,0,0,5.65-2.56-1.85-4.41,0,0-2.93,5.65-8.69,5.65s-7.27-1.63-7.27-5.65,2.17-4.66,3.15-4.66,3.91.32,3.91,3.14-2,2.47-2.72,2.47-2.38-1.89,0-2.9c0,0-2.28-1.09-2.39,1.95s3.26,2.83,4,2.83,4-.65,2.39-5c0,0,1.74-4.34-1.63-2.49,0,0-1-2.94,1.74-2.94s2.93,3.15,2.93,3.15,2,.76,2.39-.87c0,0,1.74-.54,2,2.39,0,0,3-2.55.86-4.67s-2.93.87-2.93.87-2-3.47,2.07-2.82c0,0-2.07-3.48.1-6.41,0,0,5.33,2.17,4.46,7.49,0,0,5.21-.05,3.36,3.78a2.29,2.29,0,0,0-3.69-1.5,16.43,16.43,0,0,1-2.5,4.46s2.83.7,4.67,4.45,7.6,2,7.6-1.41-4.45-3.15-4.12-1.09c0,0,2.17-1.08,2.5.76s-2.5,3-4.13,1.09-1.74-3.69.87-4.35c0,0-.22-4.77,2.5-4.34s1.62,3,1.62,3-.49-2.22-2.28-1.11,1.52,3.07,4.67,1.33a1.22,1.22,0,0,1,0,2.28,4.41,4.41,0,0,0,4.35,1.19C245.42,221.51,250.31,228,250.31,228Z" style="fill:#fff"></path><path d="M191.91,204.22s.73,6.6,6.52,7.9c0,0,1.87.81,1.95,2.12a2.12,2.12,0,0,0,.9-2.12s4,1.55,4.15,3.75V209s-3.26,1.88-3-1.46,3-.41,3-.41.65-3.26-1.87-3.26-3.1,2.61-3.42,4.08a2.2,2.2,0,0,1-4.07.57c-1.31-2.2,1.3-2.34,1.3-2.34s-1,2.17.89,2.17,1.47-3.91-.89-3.91S191.91,204.22,191.91,204.22Z" style="fill:#fff"></path><path d="M220.68,204.22s-.73,6.6-6.51,7.9c0,0-1.87.81-2,2.12a2.11,2.11,0,0,1-.89-2.12s-4,1.55-4.16,3.75V209s3.26,1.88,3-1.46-3-.41-3-.41-.65-3.26,1.88-3.26,3.09,2.61,3.42,4.08a2.2,2.2,0,0,0,4.07.57c1.3-2.2-1.3-2.34-1.3-2.34s1,2.17-.9,2.17-1.46-3.91.9-3.91S220.68,204.22,220.68,204.22Z" style="fill:#fff"></path><path d="M205.51,189.72v13s-3.81-1.33-5,1.14a2,2,0,0,1-.74-2.6s-2.37,0-1.1,2.11c0,0-4.6.41-5.58-.73,0,0,5.46-6.27,7.33-4.4a7.74,7.74,0,0,0,3.75,2.2s-.24-3.42-1.14-3.66-1,1.54-2.44.57S203.79,193.14,205.51,189.72Z" style="fill:#fff"></path><path d="M207.66,189.72v13s3.81-1.33,5,1.14a2,2,0,0,0,.73-2.6s2.37,0,1.11,2.11c0,0,4.6.41,5.57-.73,0,0-5.45-6.27-7.33-4.4a7.69,7.69,0,0,1-3.74,2.2s.24-3.42,1.14-3.66,1,1.54,2.44.57S209.37,193.14,207.66,189.72Z" style="fill:#fff"></path></g><rect x="103.62" y="261.6" width="206.18" height="6.97" style="fill:#263238"></rect><rect x="103.62" y="261.6" width="206.18" height="6.97" style="fill:#fff;opacity:0.1"></rect><rect x="103.62" y="268.56" width="206.18" height="11.53" style="fill:#263238"></rect><rect x="103.62" y="268.56" width="206.18" height="11.53" style="fill:#fff;opacity:0.2"></rect><rect x="103.62" y="280.09" width="5.5" height="41.06" style="fill:#407BFF"></rect><rect x="128.71" y="280.09" width="5.5" height="41.06" style="fill:#407BFF"></rect><rect x="153.8" y="280.09" width="5.5" height="41.06" style="fill:#407BFF"></rect><rect x="178.89" y="280.09" width="5.5" height="41.06" style="fill:#407BFF"></rect><rect x="229.07" y="280.09" width="5.5" height="41.06" style="fill:#407BFF"></rect><rect x="254.16" y="280.09" width="5.5" height="41.06" style="fill:#407BFF"></rect><rect x="279.26" y="280.09" width="5.5" height="41.06" style="fill:#407BFF"></rect><rect x="304.35" y="280.09" width="5.5" height="41.06" style="fill:#407BFF"></rect><path d="M128.71,283.57a2.3,2.3,0,0,0-2.39-2.19H111.51a2.3,2.3,0,0,0-2.39,2.19v-3.48h19.59Z" style="fill:#263238"></path><path d="M128.71,283.57a2.3,2.3,0,0,0-2.39-2.19H111.51a2.3,2.3,0,0,0-2.39,2.19v-3.48h19.59Z" style="fill:#fff;opacity:0.2"></path><path d="M153.8,283.57a2.3,2.3,0,0,0-2.39-2.19H136.6a2.3,2.3,0,0,0-2.39,2.19v-3.48H153.8Z" style="fill:#263238"></path><path d="M153.8,283.57a2.3,2.3,0,0,0-2.39-2.19H136.6a2.3,2.3,0,0,0-2.39,2.19v-3.48H153.8Z" style="fill:#fff;opacity:0.2"></path><path d="M178.89,283.57a2.3,2.3,0,0,0-2.39-2.19H161.69a2.3,2.3,0,0,0-2.39,2.19v-3.48h19.59Z" style="fill:#263238"></path><path d="M178.89,283.57a2.3,2.3,0,0,0-2.39-2.19H161.69a2.3,2.3,0,0,0-2.39,2.19v-3.48h19.59Z" style="fill:#fff;opacity:0.2"></path><path d="M254.16,283.57a2.3,2.3,0,0,0-2.39-2.19H237a2.3,2.3,0,0,0-2.39,2.19v-3.48h19.58Z" style="fill:#263238"></path><path d="M254.16,283.57a2.3,2.3,0,0,0-2.39-2.19H237a2.3,2.3,0,0,0-2.39,2.19v-3.48h19.58Z" style="fill:#fff;opacity:0.2"></path><path d="M279.26,283.57a2.3,2.3,0,0,0-2.39-2.19H262.06a2.3,2.3,0,0,0-2.39,2.19v-3.48h19.59Z" style="fill:#263238"></path><path d="M279.26,283.57a2.3,2.3,0,0,0-2.39-2.19H262.06a2.3,2.3,0,0,0-2.39,2.19v-3.48h19.59Z" style="fill:#fff;opacity:0.2"></path><path d="M304.35,283.57a2.3,2.3,0,0,0-2.39-2.19H287.15a2.3,2.3,0,0,0-2.39,2.19v-3.48h19.59Z" style="fill:#263238"></path><path d="M304.35,283.57a2.3,2.3,0,0,0-2.39-2.19H287.15a2.3,2.3,0,0,0-2.39,2.19v-3.48h19.59Z" style="fill:#fff;opacity:0.2"></path><path d="M229.07,283.57a2.3,2.3,0,0,0-2.39-2.19h-39.9a2.3,2.3,0,0,0-2.39,2.19v-3.48h44.68Z" style="fill:#263238"></path><path d="M229.07,283.57a2.3,2.3,0,0,0-2.39-2.19h-39.9a2.3,2.3,0,0,0-2.39,2.19v-3.48h44.68Z" style="fill:#fff;opacity:0.2"></path><rect x="110.42" y="271.63" width="16.98" height="5.85" rx="2.77" style="fill:#fff;opacity:0.2"></rect><rect x="135.52" y="271.63" width="16.98" height="5.85" rx="2.77" style="fill:#fff;opacity:0.2"></rect><rect x="160.61" y="271.63" width="16.98" height="5.85" rx="2.77" style="fill:#fff;opacity:0.2"></rect><rect x="235.88" y="271.63" width="16.98" height="5.85" rx="2.77" style="fill:#fff;opacity:0.2"></rect><rect x="260.97" y="271.63" width="16.98" height="5.85" rx="2.77" style="fill:#fff;opacity:0.2"></rect><rect x="286.06" y="271.63" width="16.98" height="5.85" rx="2.77" style="fill:#fff;opacity:0.2"></rect><rect x="187.92" y="271.63" width="38.83" height="5.85" rx="2.77" style="fill:#fff;opacity:0.2"></rect><path d="M308.59,311.53a1.25,1.25,0,0,0-1.25,1.25v1.48H292.87v-1.48a1.26,1.26,0,0,0-2.51,0v1.48H275.9v-1.48a1.26,1.26,0,0,0-2.51,0v1.48H258.92v-1.48a1.26,1.26,0,0,0-2.51,0v1.48H241.94v-1.48a1.26,1.26,0,0,0-2.51,0v1.48H225v-1.48a1.26,1.26,0,0,0-2.51,0v1.48H208v-1.48a1.26,1.26,0,0,0-2.51,0v1.48H191v-1.48a1.26,1.26,0,0,0-2.51,0v1.48H174v-1.48a1.25,1.25,0,0,0-2.5,0v1.48H157.06v-1.48a1.26,1.26,0,0,0-2.51,0v1.48H140.08v-1.48a1.26,1.26,0,0,0-2.51,0v1.48H123.1v-1.48a1.26,1.26,0,0,0-2.51,0v1.48H106.13v-1.48a1.26,1.26,0,0,0-2.51,0v8.05h2.51v-4.51h6.2v4.51h2.06v-4.51h6.2v4.51h2.51v-4.51h6.2v4.51h2.07v-4.51h6.2v4.51h2.51v-4.51h6.2v4.51h2.07v-4.51h6.2v4.51h2.51v-4.51h6.2v4.51h2.06v-4.51h6.21v4.51H174v-4.51h6.21v4.51h2.06v-4.51h6.2v4.51H191v-4.51h6.2v4.51h2.07v-4.51h6.2v4.51H208v-4.51h6.2v4.51h2.07v-4.51h6.2v4.51H225v-4.51h6.2v4.51h2.06v-4.51h6.2v4.51h2.51v-4.51h6.2v4.51h2.07v-4.51h6.2v4.51h2.51v-4.51h6.2v4.51h2.07v-4.51h6.2v4.51h2.51v-4.51h6.2v4.51h2.06v-4.51h6.2v4.51h2.51v-4.51h6.2v4.51h2.07v-4.51h6.2v4.51h2.51v-8.05A1.25,1.25,0,0,0,308.59,311.53Z" style="fill:#263238"></path><path d="M308.59,311.53a1.25,1.25,0,0,0-1.25,1.25v1.48H292.87v-1.48a1.26,1.26,0,0,0-2.51,0v1.48H275.9v-1.48a1.26,1.26,0,0,0-2.51,0v1.48H258.92v-1.48a1.26,1.26,0,0,0-2.51,0v1.48H241.94v-1.48a1.26,1.26,0,0,0-2.51,0v1.48H225v-1.48a1.26,1.26,0,0,0-2.51,0v1.48H208v-1.48a1.26,1.26,0,0,0-2.51,0v1.48H191v-1.48a1.26,1.26,0,0,0-2.51,0v1.48H174v-1.48a1.25,1.25,0,0,0-2.5,0v1.48H157.06v-1.48a1.26,1.26,0,0,0-2.51,0v1.48H140.08v-1.48a1.26,1.26,0,0,0-2.51,0v1.48H123.1v-1.48a1.26,1.26,0,0,0-2.51,0v1.48H106.13v-1.48a1.26,1.26,0,0,0-2.51,0v8.05h2.51v-4.51h6.2v4.51h2.06v-4.51h6.2v4.51h2.51v-4.51h6.2v4.51h2.07v-4.51h6.2v4.51h2.51v-4.51h6.2v4.51h2.07v-4.51h6.2v4.51h2.51v-4.51h6.2v4.51h2.06v-4.51h6.21v4.51H174v-4.51h6.21v4.51h2.06v-4.51h6.2v4.51H191v-4.51h6.2v4.51h2.07v-4.51h6.2v4.51H208v-4.51h6.2v4.51h2.07v-4.51h6.2v4.51H225v-4.51h6.2v4.51h2.06v-4.51h6.2v4.51h2.51v-4.51h6.2v4.51h2.07v-4.51h6.2v4.51h2.51v-4.51h6.2v4.51h2.07v-4.51h6.2v4.51h2.51v-4.51h6.2v4.51h2.06v-4.51h6.2v4.51h2.51v-4.51h6.2v4.51h2.07v-4.51h6.2v4.51h2.51v-8.05A1.25,1.25,0,0,0,308.59,311.53Z" style="fill:#fff;opacity:0.7000000000000001"></path><polygon points="313.06 356.77 100.36 356.77 103.62 320.82 309.8 320.82 313.06 356.77" style="fill:#263238"></polygon><polygon points="313.06 356.77 100.36 356.77 103.62 320.82 309.8 320.82 313.06 356.77" style="fill:#fff;opacity:0.7000000000000001"></polygon><rect x="198.47" y="288.71" width="16.68" height="16.68" style="fill:#407BFF"></rect><rect x="198.47" y="288.71" width="16.68" height="16.68" style="fill:#fff;opacity:0.30000000000000004"></rect><rect x="196.66" y="336.47" width="20.31" height="20.31" style="fill:#263238"></rect><rect x="196.66" y="336.47" width="20.31" height="3.58" style="fill:#fff;opacity:0.30000000000000004"></rect></g><g id="freepik--Plants--inject-55"><path d="M446.94,382.4s5.13-2.65,5.13-8.52-5.13-4.38-5.13-4.38,4.51-4,2.56-8.88-6.44-2.12-6.44-2.12,3-5.25-1-7.88-8.12,1.38-8.12,1.38-1.38-4-5.38-4-6.25,4.25-6.25,4.25-4.12-4.25-8.5-4.25-6.25,4.25-6.25,4.25A15.92,15.92,0,0,0,397.31,348c-6,0-7,4.62-7,4.62s-6-4.62-12.12-4.62-6.88,5.25-6.88,5.25-4-5.25-10.5-5.25-6.62,5.25-6.62,5.25-5.5-5.25-10.38-5.25-6.25,5-6.25,5-11.12-4.5-11.12,1.38,3.62,8.5,3.62,8.5-3.62,1-3.62,4.37,5.12,6,5.12,6-5.12.37-5.12,3.5,5.25,5.65,5.25,5.65Z" style="fill:#407BFF"></path><path d="M446.94,382.4s5.13-2.65,5.13-8.52-5.13-4.38-5.13-4.38,4.51-4,2.56-8.88-6.44-2.12-6.44-2.12,3-5.25-1-7.88-8.12,1.38-8.12,1.38-1.38-4-5.38-4-6.25,4.25-6.25,4.25-4.12-4.25-8.5-4.25-6.25,4.25-6.25,4.25A15.92,15.92,0,0,0,397.31,348c-6,0-7,4.62-7,4.62s-6-4.62-12.12-4.62-6.88,5.25-6.88,5.25-4-5.25-10.5-5.25-6.62,5.25-6.62,5.25-5.5-5.25-10.38-5.25-6.25,5-6.25,5-11.12-4.5-11.12,1.38,3.62,8.5,3.62,8.5-3.62,1-3.62,4.37,5.12,6,5.12,6-5.12.37-5.12,3.5,5.25,5.65,5.25,5.65Z" style="fill:#fff;opacity:0.4"></path><path d="M48.74,382.4s-5.13-2.65-5.13-8.52,5.13-4.38,5.13-4.38-4.51-4-2.57-8.88,6.45-2.12,6.45-2.12-3-5.25,1-7.88S61.74,352,61.74,352s1.38-4,5.38-4,6.25,4.25,6.25,4.25,4.12-4.25,8.5-4.25,6.25,4.25,6.25,4.25A15.92,15.92,0,0,1,98.37,348c6,0,7,4.62,7,4.62s6-4.62,12.12-4.62,6.88,5.25,6.88,5.25,4-5.25,10.5-5.25,6.62,5.25,6.62,5.25S147,348,151.87,348s6.25,5,6.25,5,11.12-4.5,11.12,1.38-3.62,8.5-3.62,8.5,3.62,1,3.62,4.37-5.12,6-5.12,6,5.12.37,5.12,3.5S164,382.4,164,382.4Z" style="fill:#407BFF"></path><path d="M48.74,382.4s-5.13-2.65-5.13-8.52,5.13-4.38,5.13-4.38-4.51-4-2.57-8.88,6.45-2.12,6.45-2.12-3-5.25,1-7.88S61.74,352,61.74,352s1.38-4,5.38-4,6.25,4.25,6.25,4.25,4.12-4.25,8.5-4.25,6.25,4.25,6.25,4.25A15.92,15.92,0,0,1,98.37,348c6,0,7,4.62,7,4.62s6-4.62,12.12-4.62,6.88,5.25,6.88,5.25,4-5.25,10.5-5.25,6.62,5.25,6.62,5.25S147,348,151.87,348s6.25,5,6.25,5,11.12-4.5,11.12,1.38-3.62,8.5-3.62,8.5,3.62,1,3.62,4.37-5.12,6-5.12,6,5.12.37,5.12,3.5S164,382.4,164,382.4Z" style="fill:#fff;opacity:0.5"></path><path d="M273.54,382.4s-5.14-2.65-5.14-8.52,5.14-4.38,5.14-4.38-4.51-4-2.57-8.88,6.44-2.12,6.44-2.12-3-5.25,1-7.88,8.13,1.38,8.13,1.38,1.37-4,5.37-4,6.25,4.25,6.25,4.25,4.13-4.25,8.5-4.25,6.25,4.25,6.25,4.25A15.92,15.92,0,0,1,323.16,348c6,0,7,4.62,7,4.62s6-4.62,12.13-4.62,6.87,5.25,6.87,5.25,4-5.25,10.5-5.25,6.63,5.25,6.63,5.25,5.5-5.25,10.37-5.25,6.25,5,6.25,5S394,348.5,394,354.38s-3.63,8.5-3.63,8.5,3.63,1,3.63,4.37-5.13,6-5.13,6,5.13.37,5.13,3.5-5.25,5.65-5.25,5.65Z" style="fill:#407BFF"></path><path d="M273.54,382.4s-5.14-2.65-5.14-8.52,5.14-4.38,5.14-4.38-4.51-4-2.57-8.88,6.44-2.12,6.44-2.12-3-5.25,1-7.88,8.13,1.38,8.13,1.38,1.37-4,5.37-4,6.25,4.25,6.25,4.25,4.13-4.25,8.5-4.25,6.25,4.25,6.25,4.25A15.92,15.92,0,0,1,323.16,348c6,0,7,4.62,7,4.62s6-4.62,12.13-4.62,6.87,5.25,6.87,5.25,4-5.25,10.5-5.25,6.63,5.25,6.63,5.25,5.5-5.25,10.37-5.25,6.25,5,6.25,5S394,348.5,394,354.38s-3.63,8.5-3.63,8.5,3.63,1,3.63,4.37-5.13,6-5.13,6,5.13.37,5.13,3.5-5.25,5.65-5.25,5.65Z" style="fill:#fff;opacity:0.5"></path><path d="M159,382.4s-5.13-2.65-5.13-8.52S159,369.5,159,369.5s-4.51-4-2.57-8.88,6.45-2.12,6.45-2.12-3-5.25,1-7.88S172,352,172,352s1.38-4,5.38-4,6.25,4.25,6.25,4.25,4.12-4.25,8.5-4.25,6.25,4.25,6.25,4.25A15.92,15.92,0,0,1,208.63,348c6,0,7,4.62,7,4.62s6-4.62,12.12-4.62,6.88,5.25,6.88,5.25,4-5.25,10.5-5.25,6.62,5.25,6.62,5.25,5.5-5.25,10.38-5.25,6.25,5,6.25,5,11.12-4.5,11.12,1.38-3.62,8.5-3.62,8.5,3.62,1,3.62,4.37-5.12,6-5.12,6,5.12.37,5.12,3.5-5.25,5.65-5.25,5.65Z" style="fill:#407BFF"></path><path d="M159,382.4s-5.13-2.65-5.13-8.52S159,369.5,159,369.5s-4.51-4-2.57-8.88,6.45-2.12,6.45-2.12-3-5.25,1-7.88S172,352,172,352s1.38-4,5.38-4,6.25,4.25,6.25,4.25,4.12-4.25,8.5-4.25,6.25,4.25,6.25,4.25A15.92,15.92,0,0,1,208.63,348c6,0,7,4.62,7,4.62s6-4.62,12.12-4.62,6.88,5.25,6.88,5.25,4-5.25,10.5-5.25,6.62,5.25,6.62,5.25,5.5-5.25,10.38-5.25,6.25,5,6.25,5,11.12-4.5,11.12,1.38-3.62,8.5-3.62,8.5,3.62,1,3.62,4.37-5.12,6-5.12,6,5.12.37,5.12,3.5-5.25,5.65-5.25,5.65Z" style="fill:#fff;opacity:0.6000000000000001"></path></g><g id="freepik--character-2--inject-55"><path d="M355.65,259.25l5.67.05s5.47-2,7.33-14.77S370,215.72,370,215.72l-1.73,0s.83,18.45-1.47,31.38S355.65,259.25,355.65,259.25Z" style="fill:#407BFF"></path><path d="M355.65,259.25l5.67.05s5.47-2,7.33-14.77S370,215.72,370,215.72l-1.73,0s.83,18.45-1.47,31.38S355.65,259.25,355.65,259.25Z" style="opacity:0.4"></path><path d="M404.34,213.29s-7-.72-11,7-6.57,12.82-9.23,12.85-6.7-10.73-6.7-10.73l2.19-5.38a3.22,3.22,0,0,0-.73-3.53l-.72-.7a3.23,3.23,0,0,0-3.41-.7l-.88.34a3.22,3.22,0,0,0-2.05,2.62c-.3,2.35-.56,6.18.62,7.81,0,0,6,20.25,11.32,19.93s12.15-8.84,15.66-13C402.22,226.58,405.63,223.06,404.34,213.29Z" style="fill:#ffc3bd"></path><path d="M405.25,212.53C404,211,396.88,210,390.2,224.83c0,0,3.81,6.21,9,7.26C399.22,232.09,410.7,219.29,405.25,212.53Z" style="fill:#407BFF"></path><path d="M390.35,223.24s3.72,6.13,10.27,8.07l-1.32,1.48s-5.9-.61-9.76-7.91Z" style="fill:#407BFF"></path><path d="M390.35,223.24s3.72,6.13,10.27,8.07l-1.32,1.48s-5.9-.61-9.76-7.91Z" style="fill:#fff;opacity:0.7000000000000001"></path><path d="M390.7,223.77C397.23,210,404,211,405.25,212.53c4.55,5.63-2.68,15.47-5.2,18.58l.57.2-1.32,1.48s-5.9-.61-9.76-7.91l.81-1.64S390.47,223.44,390.7,223.77Z" style="opacity:0.1"></path><polygon points="355.42 199.44 368.63 199.77 370.28 208.79 369.32 209.71 356.11 209.38 354.46 200.36 355.42 199.44" style="fill:#263238"></polygon><polygon points="355.42 199.44 368.63 199.77 370.28 208.79 369.32 209.71 356.11 209.38 354.46 200.36 355.42 199.44" style="fill:#fff;opacity:0.30000000000000004"></polygon><polygon points="357.07 208.47 370.28 208.79 368.63 199.77 355.42 199.44 357.07 208.47" style="fill:#fff;opacity:0.5"></polygon><polygon points="358.37 207.49 368.61 207.75 367.33 200.75 357.09 200.49 358.37 207.49" style="fill:#263238"></polygon><polygon points="358.37 207.49 368.61 207.75 367.33 200.75 357.09 200.49 358.37 207.49" style="fill:#fff;opacity:0.30000000000000004"></polygon><g style="opacity:0.2"><polygon points="362.43 200.63 363.77 200.66 366.26 207.69 364.92 207.65 362.43 200.63" style="fill:#fff"></polygon><polygon points="358.16 200.52 360.85 200.59 363.34 207.62 360.65 207.55 358.16 200.52" style="fill:#fff"></polygon></g><path d="M345.77,219.55c-1.69,0-3-2.46-2.94-5.41s1.51-5.3,3.2-5.25l3.39.08c1.69,0,3,2.46,2.94,5.41s-1.51,5.3-3.2,5.25Z" style="fill:#263238"></path><path d="M345.77,219.55c-1.69,0-3-2.46-2.94-5.41s1.51-5.3,3.2-5.25l3.39.08c1.69,0,3,2.46,2.94,5.41s-1.51,5.3-3.2,5.25Z" style="fill:#fff;opacity:0.1"></path><path d="M346.22,214.23c-.07,2.94,1.24,5.36,2.94,5.4s3.12-2.31,3.2-5.25-1.25-5.37-2.94-5.41S346.29,211.28,346.22,214.23Z" style="fill:#263238"></path><path d="M350.27,218.59c-1.36,0-2.41-2-2.35-4.32s1.2-4.24,2.56-4.2l2.7.06c1.36,0,2.41,2,2.35,4.32s-1.2,4.24-2.56,4.21Z" style="fill:#263238"></path><path d="M350.27,218.59c-1.36,0-2.41-2-2.35-4.32s1.2-4.24,2.56-4.2l2.7.06c1.36,0,2.41,2,2.35,4.32s-1.2,4.24-2.56,4.21Z" style="fill:#fff;opacity:0.30000000000000004"></path><rect x="356.15" y="204.78" width="10.67" height="19.65" rx="1.63" transform="translate(138.09 570.72) rotate(-88.6)" style="fill:#263238"></rect><rect x="355.63" y="209.31" width="15.67" height="10.67" rx="1.74" transform="matrix(-1, -0.02, 0.02, -1, 721.57, 438.14)" style="fill:#fff;opacity:0.30000000000000004"></rect><rect x="357.51" y="210.39" width="12.34" height="8.53" transform="translate(721.98 438.16) rotate(-178.6)" style="fill:#263238"></rect><path d="M379.77,188.1a.28.28,0,0,1-.24-.13,2.28,2.28,0,0,0-1.77-1,.27.27,0,0,1-.29-.27.3.3,0,0,1,.28-.3,2.81,2.81,0,0,1,2.25,1.29.29.29,0,0,1-.07.4h0A.43.43,0,0,1,379.77,188.1Z" style="fill:#263238"></path><path d="M377.11,190.59c-.07.54.16,1,.52,1.06s.72-.38.77-.91-.17-1-.53-1.05S377.18,190.05,377.11,190.59Z" style="fill:#263238"></path><path d="M378.16,189.64a2.31,2.31,0,0,1-1.72-1,1.87,1.87,0,0,0,1.6,1.66Z" style="fill:#263238"></path><polygon points="420.42 396.74 423.51 408.6 429.05 407.65 427.91 395.04 420.42 396.74" style="fill:#ffc3bd"></polygon><path d="M423.07,406.78l6.54-1a.53.53,0,0,1,.57.33l2,5.13a.88.88,0,0,1-.5,1.15.53.53,0,0,1-.18.05c-2.36.33-4.47.53-7.4,1-3.46.54-2.52.82-6.58,1.51-2.45.42-3.33-2.3-2.31-2.6,4.66-1.34,4.93-2.85,6.5-4.84A2.15,2.15,0,0,1,423.07,406.78Z" style="fill:#263238"></path><polygon points="372.45 393.27 372.07 408.88 377.93 409.03 381.32 393.85 372.45 393.27" style="fill:#ffc3bd"></polygon><path d="M372,407.88l6.59.4a.54.54,0,0,1,.5.45l.87,5.43a.89.89,0,0,1-.73,1H379c-2.37-.18-4.48-.44-7.43-.61-3.5-.21-2.64.26-6.74.07-2.48-.12-2.76-3-1.71-3,4.84-.32,5.43-1.74,7.38-3.34A2.11,2.11,0,0,1,372,407.88Z" style="fill:#263238"></path><path d="M421.25,403s-9.69-24.42-16.68-50.17a635.23,635.23,0,0,1-13.9-63.21l-1.89-26.47,4.65.11,11-2.81s8.66,7.4,8.14,31.52c-.2,9.1,1.88,33.5,4.84,44.22,1.21,4.38,4.6,12.86,5.63,17.29,2.75,11.87,6.14,48.36,6.14,48.36A18.09,18.09,0,0,1,421.25,403Z" style="fill:#263238"></path><path d="M391.56,290.3l3-3.7,2.62-.66s2.86,6.81-.92,33c-2.76-12.69-4.45-22.2-5.19-26.6Z" style="opacity:0.4"></path><path d="M371.76,403.81l1.46-142,28.53.7c4.13,17.66,1.71,24.36-.69,26.9a15.45,15.45,0,0,0-3.9,7.36c-2.56,11.76-6.86,27.7-7.81,36.89-.59,5.63,0,16.29-.49,21.69-1.13,12.33-9.29,48.66-9.29,48.66A24.22,24.22,0,0,1,371.76,403.81Z" style="fill:#263238"></path><path d="M378.74,192.15l-3.5,3.6a3.75,3.75,0,0,0,3.23,1Z" style="fill:#ed847e"></path><path d="M398.13,190.17c-.53,7.25-.6,10.33-4.3,14-5.64,3.73-14.37,3.32-16-4-1.48-6.53-.38-17.26,6.76-20.11a9.93,9.93,0,0,1,13.56,10Z" style="fill:#ffc3bd"></path><path d="M382.93,203.49a7.86,7.86,0,0,1-4-.59c1.63,2.55,4.53,3.66,7.62,3.59l-.3-1.48S386.27,203.17,382.93,203.49Z" style="fill:#606060;opacity:0.1"></path><path d="M386,210.8l.86-9.13s3.73-1.25,5.92.15c0,0,.89,6.87,2.87,8.56Z" style="fill:#ffc3bd"></path><path d="M382.8,213.29s1-3.59,7.32-4.74a7.71,7.71,0,0,1,8.61,3.88Z" style="fill:#407BFF"></path><path d="M382.8,213.29s1-3.59,7.32-4.74a7.71,7.71,0,0,1,8.61,3.88Z" style="fill:#fff;opacity:0.7000000000000001"></path><path d="M372.47,262.72s25.3,3.76,33.54-2.24a69.14,69.14,0,0,1-1.08-19.82c1-10.53,4.54-20.86,1.21-26.65s-29.09-2.16-34.28,2.92S373,242.41,372.47,262.72Z" style="fill:#407BFF"></path><path d="M381.52,193.7s-1.95-.44-1-3.31-3.3-3.09-.46-9c.86-1.81,2.82-5.16,10.17-3,0,0,17.85.68,6.14,23.73a15.39,15.39,0,0,1-2,2.49,2,2,0,0,1-1.87.57,7.69,7.69,0,0,0-2.75.15,2,2,0,0,1-1.78-.52A30.12,30.12,0,0,1,381.52,193.7Z" style="fill:#263238"></path><path d="M379.22,191.91a5.55,5.55,0,0,0,.48,4.26c1,1.72,2.85,1.2,3.75-.43.82-1.47,1.29-4.13-.25-5.3A2.53,2.53,0,0,0,379.22,191.91Z" style="fill:#ffc3bd"></path><path d="M377,176a4.77,4.77,0,0,1,.73-1c2.55-4,9.29-1.85,17.95,2.78,8.89,4.75,13.38,11.68,11,16.14a5,5,0,0,1-.72,1c-2.6,4.09-10.73,2.77-19.41-1.87C377.68,188.24,374.63,180.44,377,176Z" style="fill:#407BFF"></path><path d="M377,176a4.77,4.77,0,0,1,.73-1c2.55-4,9.29-1.85,17.95,2.78,8.89,4.75,13.38,11.68,11,16.14a5,5,0,0,1-.72,1c-2.6,4.09-10.73,2.77-19.41-1.87C377.68,188.24,374.63,180.44,377,176Z" style="fill:#fff;opacity:0.30000000000000004"></path><path d="M377.53,175.3c-2.38,4.46.67,12.26,9.56,17s17.21,6,19.6,1.58-2.11-11.39-11-16.14S379.92,170.84,377.53,175.3Z" style="fill:#fff;opacity:0.6000000000000001"></path><path d="M400.34,189.78s4.86-9.79-3.54-14.59c-9.59-5.48-15.07,5.84-15.07,5.84A21.51,21.51,0,0,0,400.34,189.78Z" style="fill:#407BFF"></path><path d="M400.34,189.78s4.86-9.79-3.54-14.59c-9.59-5.48-15.07,5.84-15.07,5.84A21.51,21.51,0,0,0,400.34,189.78Z" style="fill:#fff;opacity:0.5"></path><path d="M396.8,175.19a9.14,9.14,0,0,1,4.88,7.23s-.91-3.23-3.71-3.61-3.41-4.13-7-4.05a10.49,10.49,0,0,0-5.42,1.37C388.15,174,392,172.42,396.8,175.19Z" style="opacity:0.1"></path><path d="M400.34,189.78A21.51,21.51,0,0,1,381.73,181a16.78,16.78,0,0,1,1.75-2.71,35,35,0,0,0,6.89,5.56,21.8,21.8,0,0,0,10.87,3.36A14.63,14.63,0,0,1,400.34,189.78Z" style="fill:#407BFF"></path><path d="M369.88,227.8c1.71-3,3.17-5.36,3.17-5.36l8.77-3.17s.58,10.51-10.9,19.48C370.46,234.72,370.05,231,369.88,227.8Z" style="opacity:0.1"></path><path d="M391.44,220.62c-.95-2.57-4.17-10-9.22-8.67a.74.74,0,0,1-.26,0,7.12,7.12,0,0,0-3.82.47.68.68,0,0,0,.15,1.28c1.93.37,5.24,1.87,6.43,7.62a.69.69,0,0,0,.71.55l5.42-.37A.67.67,0,0,0,391.44,220.62Z" style="fill:#263238"></path><path d="M391.44,220.62c-.95-2.57-4.17-10-9.22-8.67a.74.74,0,0,1-.26,0,7.12,7.12,0,0,0-3.82.47.68.68,0,0,0,.15,1.28c1.93.37,5.24,1.87,6.43,7.62a.69.69,0,0,0,.71.55l5.42-.37A.67.67,0,0,0,391.44,220.62Z" style="fill:#fff;opacity:0.5"></path><path d="M408.63,222.94s-1-12-6.77-11.76c0,0-2.59-1.58-3.82-.79,0,0,6.19,1.92,6.77,12.45Z" style="fill:#263238"></path><path d="M408.63,222.94s-1-12-6.77-11.76c0,0-2.59-1.58-3.82-.79,0,0,6.19,1.92,6.77,12.45Z" style="fill:#fff;opacity:0.5"></path><path d="M399.53,200.91s-.33-2.38-1.77-2.15a3.05,3.05,0,0,0-2.38,2.59,2.13,2.13,0,0,0,1,2.3Z" style="fill:#407BFF"></path><path d="M372,249.52a18.34,18.34,0,0,0,8.73,13.15l.66,7.68s-8.36-5.59-9.58-13C371.82,257.36,370.55,251.83,372,249.52Z" style="fill:#263238"></path><path d="M372,249.52a18.34,18.34,0,0,0,8.73,13.15l.66,7.68s-8.36-5.59-9.58-13C371.82,257.36,370.55,251.83,372,249.52Z" style="fill:#fff;opacity:0.5"></path><path d="M416.64,223.87s3.13,9.46,3.45,12.74c1,10.12,4,33.08-2.88,40.58-4.11,4.48-18,4.61-24,3.81-2.79-.37-8.71-2.26-10.26-4.6-5.46-8.27-2.12-29.83-.72-39.64.54-3.83,4.59-14.78,4.59-14.78Z" style="fill:#407BFF"></path><path d="M416.64,223.87s3.13,9.46,3.45,12.74c1,10.12,4,33.08-2.88,40.58-4.11,4.48-18,4.61-24,3.81-2.79-.37-8.71-2.26-10.26-4.6-5.46-8.27-2.12-29.83-.72-39.64.54-3.83,4.59-14.78,4.59-14.78Z" style="fill:#fff;opacity:0.30000000000000004"></path><path d="M386.79,222l3.88.25c2.23,6.53,3.53,29.1,4.28,45.34.4,8.8-.77,12.19-2,13.39-2.88-.45-8.49-2.29-10-4.56-5.46-8.27-2.12-29.83-.72-39.64C382.74,232.93,386.79,222,386.79,222Z" style="fill:#fff;opacity:0.5"></path><path d="M395,271.49c-.06,5.93-1,8.47-2.11,9.47-2.88-.45-8.49-2.29-10-4.56a19.59,19.59,0,0,1-2.57-8A43.92,43.92,0,0,0,395,271.49Z" style="fill:#407BFF"></path><path d="M395,271.49c-.06,5.93-1,8.47-2.11,9.47-2.88-.45-8.49-2.29-10-4.56a19.59,19.59,0,0,1-2.57-8A43.92,43.92,0,0,0,395,271.49Z" style="fill:#fff;opacity:0.5"></path><path d="M417.53,246.57l.7,9.41a2.85,2.85,0,0,1-2.57,3L402,260.28a2.84,2.84,0,0,1-3.1-2.72l-.38-10.51Z" style="fill:#407BFF"></path><path d="M383.27,233.94a24.5,24.5,0,0,0,9.62.11,1.3,1.3,0,0,1,1.48,1.15l.15,1.35a1.31,1.31,0,0,1-1.15,1.43,44.34,44.34,0,0,1-10.89-.3,1.24,1.24,0,0,1-1-1.53l.34-1.32A1.2,1.2,0,0,1,383.27,233.94Z" style="fill:#263238"></path><path d="M380.74,262.67c2.19.69,6.65,1.66,14,1.26a2,2,0,0,1,2.15,1.87l.07.94a2,2,0,0,1-2,2.19A71,71,0,0,1,380,267.19a1.28,1.28,0,0,1-1-1.3l.05-2A1.28,1.28,0,0,1,380.74,262.67Z" style="fill:#263238"></path><g style="opacity:0.30000000000000004"><path d="M383.27,233.94a24.5,24.5,0,0,0,9.62.11,1.3,1.3,0,0,1,1.48,1.15l.15,1.35a1.31,1.31,0,0,1-1.15,1.43,44.34,44.34,0,0,1-10.89-.3,1.24,1.24,0,0,1-1-1.53l.34-1.32A1.2,1.2,0,0,1,383.27,233.94Z" style="fill:#fff"></path><path d="M380.74,262.67c2.19.69,6.65,1.66,14,1.26a2,2,0,0,1,2.15,1.87l.07.94a2,2,0,0,1-2,2.19A71,71,0,0,1,380,267.19a1.28,1.28,0,0,1-1-1.3l.05-2A1.28,1.28,0,0,1,380.74,262.67Z" style="fill:#fff"></path></g><path d="M422.35,232c1.39-.21,1.67-3.08.75-5.89s-2.69-4.51-4.08-4.31c-10.31,1.51-28-2.16-38.39-.94-1.4.17-1.68,3.07-.76,5.89s2.69,4.47,4.08,4.3C394.31,229.84,412,233.52,422.35,232Z" style="fill:#407BFF"></path><path d="M422.35,232c1.39-.21,1.67-3.08.75-5.89s-2.69-4.51-4.08-4.31c-10.31,1.51-28-2.16-38.39-.94-1.4.17-1.68,3.07-.76,5.89s2.69,4.47,4.08,4.3C394.31,229.84,412,233.52,422.35,232Z" style="fill:#fff;opacity:0.5"></path><path d="M379.87,226.76c.92,2.81,2.75,4.74,4.08,4.3s1.67-3.07.76-5.88-2.75-4.74-4.08-4.31S379,223.94,379.87,226.76Z" style="fill:#fff;opacity:0.5"></path><path d="M385.86,229.11c-.11,1.35-1.57,1.55-2.63,1.16a5.42,5.42,0,0,1-3.14-4c-.22-1-.73-3.81,1.07-3.72,1.31.07,2,1.86,2.23,2.93.15.88-1.21,1.23-1.36.34a3.73,3.73,0,0,0-.39-1.18c-.1-.17-.52-.52-.55-.67s.17-.14.2-.09,0,.18,0,.25c.11.68.07,1.37.25,2.06a4.14,4.14,0,0,0,1.83,2.63,1.88,1.88,0,0,0,.91.29c.18,0,.22-.11.21,0,.07-.9,1.48-.87,1.4,0Z" style="fill:#407BFF"></path><g style="opacity:0.5"><path d="M385.86,229.11c-.11,1.35-1.57,1.55-2.63,1.16a5.42,5.42,0,0,1-3.14-4c-.22-1-.73-3.81,1.07-3.72,1.31.07,2,1.86,2.23,2.93.15.88-1.21,1.23-1.36.34a3.73,3.73,0,0,0-.39-1.18c-.1-.17-.52-.52-.55-.67s.17-.14.2-.09,0,.18,0,.25c.11.68.07,1.37.25,2.06a4.14,4.14,0,0,0,1.83,2.63,1.88,1.88,0,0,0,.91.29c.18,0,.22-.11.21,0,.07-.9,1.48-.87,1.4,0Z" style="fill:#fff"></path></g><path d="M406.66,221.52s6.92,7.8,2.69,15.48a2,2,0,0,1-1.71,1l-1.1.05a1.31,1.31,0,0,1-1.28-1.75,14.81,14.81,0,0,0-3.06-14.93S403.59,220.62,406.66,221.52Z" style="fill:#263238"></path><path d="M406.66,221.52s6.92,7.8,2.69,15.48a2,2,0,0,1-1.71,1l-1.1.05a1.31,1.31,0,0,1-1.28-1.75,14.81,14.81,0,0,0-3.06-14.93S403.59,220.62,406.66,221.52Z" style="fill:#fff;opacity:0.30000000000000004"></path><path d="M417.51,244.64l-19.19.64a1.2,1.2,0,0,0-1.09,1.61l.34.94A3.37,3.37,0,0,0,401,250l14.63-.88a3.38,3.38,0,0,0,3.17-3.29h0A1.2,1.2,0,0,0,417.51,244.64Z" style="fill:#263238"></path><path d="M417.51,244.64l-19.19.64a1.2,1.2,0,0,0-1.09,1.61l.34.94A3.37,3.37,0,0,0,401,250l14.63-.88a3.38,3.38,0,0,0,3.17-3.29h0A1.2,1.2,0,0,0,417.51,244.64Z" style="fill:#fff;opacity:0.30000000000000004"></path><path d="M354.26,218.28a.62.62,0,0,1,.6.7c-.75,5.3-5.24,39.53,3.81,40.34l-3-.07s-3-1-3.79-12.09c-.72-10,1.09-25.27,1.47-28.35a.63.63,0,0,1,.63-.54Z" style="fill:#407BFF"></path><path d="M354.26,218.28a.62.62,0,0,1,.6.7c-.75,5.3-5.24,39.53,3.81,40.34l-3-.07s-3-1-3.79-12.09c-.72-10,1.09-25.27,1.47-28.35a.63.63,0,0,1,.63-.54Z" style="opacity:0.2"></path><path d="M380.06,216.43s-6.76-1.89-12,5.09-8.2,10.7-10.83,10.29S351.4,224,352,220.92c.27-1.43,3.06-4.93,3.06-4.93a3.2,3.2,0,0,0-.13-3.6l-.58-.81a3.25,3.25,0,0,0-3.25-1.27l-.93.19a3.25,3.25,0,0,0-2.45,2.23c-.69,2.27-1.6,6-.71,7.81,0,0-1.66,15.45,7.41,20.28,4.74,2.53,13.85-5.4,18-8.88C375.74,229.17,379.69,226.27,380.06,216.43Z" style="fill:#ffc3bd"></path><path d="M381.09,215.83c-1-1.76-7.82-3.92-16.9,9.59,0,0,2.7,6.77,7.66,8.68C371.85,234.1,385.33,223.41,381.09,215.83Z" style="fill:#407BFF"></path><path d="M364.6,223.88s2.63,6.67,8.77,9.68l-1.56,1.24s-5.71-1.6-8.29-9.44Z" style="fill:#407BFF"></path><path d="M364.6,223.88s2.63,6.67,8.77,9.68l-1.56,1.24s-5.71-1.6-8.29-9.44Z" style="fill:#fff;opacity:0.7000000000000001"></path><path d="M396.87,201c1.24-1.51,4.23-2.41,7.2,3s-1.52,16.72,2,22.52S388.51,211.23,396.87,201Z" style="fill:#263238"></path></g><g id="freepik--character-1--inject-55"><path d="M261.6,276.3s3.56,2.56,5.71,2.82L265.38,274Z" style="fill:#407BFF"></path><path d="M261,261.52s-1.95,14.65.6,14.78a33.93,33.93,0,0,0,4.23,0l.94-15.31-2.95-.61h-1.47Z" style="fill:#407BFF"></path><path d="M261,261.52s-1.95,14.65.6,14.78a33.93,33.93,0,0,0,4.23,0l.94-15.31-2.95-.61h-1.47Z" style="fill:#fff;opacity:0.2"></path><path d="M265.38,260s-4.38-1.11-5.19,2.38-2.14,12.36-.45,12.36c1.35,0,1.08-10.48,2.17-12.36s3.47-1.07,3.47-1.07Z" style="fill:#407BFF"></path><polygon points="270.13 226.15 273.52 240.48 275.91 238.02 273.52 222.76 270.13 226.15" style="fill:#407BFF"></polygon><polygon points="270.13 226.15 273.52 240.48 275.91 238.02 273.52 222.76 270.13 226.15" style="fill:#fff;opacity:0.30000000000000004"></polygon><path d="M278.6,230.34c-1.37-1.15-4.71-2.67-6.77,2.34s-9.37,23.29-7.57,24c2,.8,6.68-16.66,6.68-16.66l8.93-8.13A15.1,15.1,0,0,0,278.6,230.34Z" style="fill:#407BFF"></path><path d="M278.6,231.39c-3.78-1.81-4.51-3.26-9.71,13.66s-10.25,40.21,10.1,41.46,10.47-52.12,10.47-52.12S281.13,232.61,278.6,231.39Z" style="fill:#407BFF"></path><path d="M278.6,231.39c-3.78-1.81-4.51-3.26-9.71,13.66s-10.25,40.21,10.1,41.46,10.47-52.12,10.47-52.12S281.13,232.61,278.6,231.39Z" style="fill:#fff;opacity:0.5"></path><path d="M289.46,234.39s-6.28-1.34-9.59-2.49c-3.47,7.38-17.55,39.29-6.77,49.24,8.26,7.61,14.08,1.44,14.21,1.3C296.07,270.15,289.46,234.39,289.46,234.39Z" style="fill:#263238;opacity:0.2"></path><path d="M326.31,209.9l-.48-3.81a5.25,5.25,0,0,1-2.51-4c-.09-2.6,1.3-2.63,1.3-2.63s-2.6-5.42-1.31-5.77,2.26,4.69,3.39,4.81,1.18-5.93,2.25-5.51c1.3.52-.61,6.18.78,6.47s.95,5,0,5.71l1,4.72Z" style="fill:#eec1bb"></path><path d="M312,209a.44.44,0,0,1,.79,0c1.72,3.32,8.71,18,11.39,16.85,2.38-1,1-17.85,1-17.85l6.24-1.16s5.5,28.63-3,29.8c-7.07,1-12.39-3.48-14.95-7.67C311.14,225.16,308.7,215.65,312,209Z" style="fill:#263238"></path><path d="M313.35,213.44l-2.07,2.09-.89,1.41A26.22,26.22,0,0,0,313.48,229a17.64,17.64,0,0,0,4.54,4.94A102.7,102.7,0,0,0,313.35,213.44Z" style="opacity:0.4"></path><polygon points="322.19 400.34 322.61 407.75 315.59 408 314.56 400.62 322.19 400.34" style="fill:#eec1bb"></polygon><path d="M321.71,406.63l-6.95.4a.65.65,0,0,0-.6.54l-1.1,6.61a1.08,1.08,0,0,0,.88,1.25.81.81,0,0,0,.22,0c2.9-.2,5.46-.5,9.07-.69,4.25-.23,3.2.34,8.21.14,3-.13,3.38-3.58,2.09-3.68-5.89-.42-7.67-2.11-10-4.09A2.61,2.61,0,0,0,321.71,406.63Z" style="fill:#263238"></path><path d="M315.42,259.3,323.91,405l-10.19.38s-6.51-34.62-7.26-52.24c0-.36,0-.72,0-1.07-.15-4.64.48-9.26-.32-13.83l-.05-.28c-2.34-13.31-7-37.4-10.42-40.74-4.79-4.65-11.3-11.83-7.9-34.31Z" style="fill:#407BFF"></path><path d="M315.42,259.3,323.91,405l-10.19.38s-6.51-34.62-7.26-52.24c0-.36,0-.72,0-1.07-.15-4.64.48-9.26-.32-13.83l-.05-.28c-2.34-13.31-7-37.4-10.42-40.74-4.79-4.65-11.3-11.83-7.9-34.31Z" style="opacity:0.30000000000000004"></path><path d="M299.83,277.39,298,286.71,294.86,296l.64.68a8.14,8.14,0,0,1,1.38,2.49,78.08,78.08,0,0,1,4.05,13.29c2.06-21.22.9-35.07.9-35.07Z" style="opacity:0.1"></path><polygon points="283.75 401.38 282.71 408.72 275.78 408.52 276.2 400.15 283.75 401.38" style="fill:#eec1bb"></polygon><path d="M304.1,262.43l-19.64,143-9.65-1s.2-38.5,2.57-55.06c.05-.41.11-.8.17-1.18.74-4.68,2.09-9.41,1.89-14.14v-.16c-.41-9.73-1-25.28-1.22-36.3C278,289,276.77,284,280.75,263Z" style="fill:#407BFF"></path><path d="M304.1,262.43l-19.64,143-9.65-1s.2-38.5,2.57-55.06c.05-.41.11-.8.17-1.18.74-4.68,2.09-9.41,1.89-14.14v-.16c-.41-9.73-1-25.28-1.22-36.3C278,289,276.77,284,280.75,263Z" style="opacity:0.30000000000000004"></path><path d="M282.37,407l-7,.15a.64.64,0,0,0-.62.51l-1.33,6.57a1.08,1.08,0,0,0,.83,1.28.86.86,0,0,0,.23,0c2.89-.1,5.47-.31,9.08-.37,4.26-.07,3.19.46,8.2.44,3,0,3.5-3.46,2.22-3.61-5.87-.63-7.59-2.38-9.89-4.44A2.58,2.58,0,0,0,282.37,407Z" style="fill:#263238"></path><path d="M289,188.94c.59,4.21,1,11.48-1.27,15.18a2.24,2.24,0,0,0,.34,2.77,15.28,15.28,0,0,0,9.82,4.81c4.82.43,5.29-2.14,4.46-4.21a2.21,2.21,0,0,0-1.23-1.21c-4.48-1.71-4.58-5.72-3.52-9.16Z" style="fill:#eec1bb"></path><path d="M292.54,192.29l5.1,4.81a15.24,15.24,0,0,0-.52,2.59,7.33,7.33,0,0,1-5.17-4.48C291.52,193.83,292,192.42,292.54,192.29Z" style="opacity:0.2;isolation:isolate"></path><path d="M299.83,184.69c-3.94-3.56-5.3-9.56-4.68-10.71s4.07-5.91,4.93-5.21c6,3.36,4,13.42,4,13.42l1.24,2.52Z" style="fill:#263238"></path><g style="opacity:0.6000000000000001"><path d="M299.83,184.69c-3.94-3.56-5.3-9.56-4.68-10.71s4.07-5.91,4.93-5.21c6,3.36,4,13.42,4,13.42l1.24,2.52Z"></path></g><path d="M287.63,182c.49,6.4.45,10.17,3.74,13.4,4.94,4.88,12.81,1.8,14.23-4.6,1.29-5.8.26-15.27-6.05-17.72A8.74,8.74,0,0,0,287.63,182Z" style="fill:#eec1bb"></path><path d="M297.68,183.73c0,.52.29.94.63.93s.61-.43.6-.95-.29-.94-.63-.93S297.67,183.21,297.68,183.73Z" style="fill:#263238"></path><path d="M303.57,183.64c0,.51.29.93.63.93s.61-.43.6-.95-.29-1-.63-.94S303.56,183.11,303.57,183.64Z" style="fill:#263238"></path><path d="M301.39,183.87a18.67,18.67,0,0,0,2.56,4.41,3,3,0,0,1-2.48.52Z" style="fill:#d4827d"></path><path d="M296.41,181a.35.35,0,0,1-.14-.06.34.34,0,0,1,0-.44,3.11,3.11,0,0,1,2.71-.7.31.31,0,1,1-.17.59h0a2.45,2.45,0,0,0-2.14.58A.3.3,0,0,1,296.41,181Z" style="fill:#263238"></path><path d="M306.19,180.73a.28.28,0,0,1-.29,0,2.41,2.41,0,0,0-2.14-.5.31.31,0,1,1-.19-.59,3.07,3.07,0,0,1,2.73.61.3.3,0,0,1,.06.42h0A.25.25,0,0,1,306.19,180.73Z" style="fill:#263238"></path><path d="M300,190.38a5.59,5.59,0,0,0,.91-.08.17.17,0,0,0,.14-.18h0a.15.15,0,0,0-.18-.13,4.4,4.4,0,0,1-3.78-1.06.16.16,0,1,0-.24.22A4.51,4.51,0,0,0,300,190.38Z" style="fill:#263238"></path><path d="M313,210.31a3.34,3.34,0,0,0-1.73-2.3c-3.29-1.7-11.75-5.53-19.73-4.8a54.63,54.63,0,0,0-14.5,3.58,6.1,6.1,0,0,0-3.82,6.57c1.54,10.7,4.83,31.24,5.7,47.8a3.31,3.31,0,0,0,3.4,3.13l31-.76a3.34,3.34,0,0,0,3.25-3.17A193.44,193.44,0,0,0,313,210.31Z" style="fill:#263238"></path><path d="M299.87,205.06a11.75,11.75,0,0,1,0-3.24.49.49,0,0,1,0-.11A1.26,1.26,0,0,0,298.8,200a47.87,47.87,0,0,1-9.51-1.29,1.23,1.23,0,0,0-1.54,1c-.1.74-.21,1.58-.27,2a17.28,17.28,0,0,1-1.35,3.27S296.62,205.45,299.87,205.06Z" style="fill:#263238"></path><path d="M300,205.73s-1.62,2.23-9.53-.12a.21.21,0,0,0-.18.37C293.34,207.9,300.86,212,300,205.73Z" style="opacity:0.4"></path><path d="M289,187.45s3.8.94,1.7-3.22c0,0,4.93-5.47,2.46-8.56,0,0,11,.55,11.87-3.17a12.6,12.6,0,0,1-3.63-.1s3.67-1.16,1.28-6.4c0,0-.65,2.78-2.85,3.18,0,0,2.69-4.39-2.14-6.72,0,0,1.72,3.29-1.8,3.63s-7.94-.27-11.31,7.41C284.57,173.5,273.72,175.49,289,187.45Z" style="fill:#263238"></path><path d="M287.59,185.17s5-2.92,6.79-3.38c2.92-.74,12-.41,12-.41s2.35,4.38,0,5c-1.46.38-3.43-1.09-4.42-1.94a.73.73,0,0,0-1.07.14c-.67.92-2,2.41-3.59,2.32-2.28-.13-3.16-3.2-3.16-3.2L287.59,186Z" style="fill:#407BFF"></path><path d="M287.59,185.17s5-2.92,6.79-3.38c2.92-.74,12-.41,12-.41s2.35,4.38,0,5c-1.46.38-3.43-1.09-4.42-1.94a.73.73,0,0,0-1.07.14c-.67.92-2,2.41-3.59,2.32-2.28-.13-3.16-3.2-3.16-3.2L287.59,186Z" style="opacity:0.30000000000000004"></path><path d="M284.59,188.06a6.2,6.2,0,0,0,3.84,2.63c2.1.42,3-1.49,2.28-3.39-.63-1.7-2.5-4-4.54-3.56A2.73,2.73,0,0,0,284.59,188.06Z" style="fill:#eec1bb"></path><path d="M273.52,215.79c.57,4.05,1.32,9.52,2.1,15.6,5.22-9.8,2.82-17.26,2.82-17.26Z" style="opacity:0.4"></path><path d="M278.24,206.37s6.4,14.39-.14,46.37a12,12,0,0,0,.58,6.16s14.53-17.77,5.14-54.4C283.82,204.5,282.09,203.9,278.24,206.37Z" style="fill:#407BFF"></path><path d="M278.06,206.2s6.58,14.56,0,46.54a12,12,0,0,0,.58,6.16s14.35-17.94,5-54.57C283.64,204.33,281.92,203.72,278.06,206.2Z" style="fill:#fff;opacity:0.30000000000000004"></path><path d="M271.8,250.53l7.27,4.63L280,249s-3.8-2.77-4.85-4.71Z" style="fill:#eec1bb"></path><path d="M271.8,250.53l7.27,4.63L280,249s-3.8-2.77-4.85-4.71Z" style="opacity:0.1"></path><path d="M277.24,207.51a1.49,1.49,0,0,0-2.27.21c-3.85,5.46-18,18-17.88,25.34.16,8.54,17.34,19.69,17.34,19.69l3-6s-9.88-12.43-9.57-14.48,7.68-7,10.29-12.65C279.44,216.78,281.48,211.85,277.24,207.51Z" style="fill:#263238"></path><path d="M278,249s.19-2.76,2.52-2.85,3.27,1,3.27,1.9a17.47,17.47,0,0,1-1.46,5.52c-.49.81-2.07,2.07-3.45,1.55S278,249,278,249Z" style="fill:#eec1bb"></path></g></svg>